{
  "accessors": [
    {
      "bufferView": 2,
      "componentType": 5126,
      "count": 24624,
      "max": [
        114.11048889160156,
        12.0,
        114.11048889160156
      ],
      "min": [
        -114.11048889160156,
        0.0,
        -114.11048889160156
      ],
      "type": "VEC3"
    },
    {
      "bufferView": 2,
      "byteOffset": 295488,
      "componentType": 5126,
      "count": 24624,
      "max": [
        1.0,
        1.0,
        1.0
      ],
      "min": [
        -1.0,
        -1.0,
        -1.0
      ],
      "type": "VEC3"
    },
    {
      "bufferView": 1,
      "componentType": 5126,
      "count": 24624,
      "max": [
        1.0,
        1.0
      ],
      "min": [
        0.0,
        0.0
      ],
      "type": "VEC2"
    },
    {
      "bufferView": 0,
      "componentType": 5125,
      "count": 126720,
      "type": "SCALAR"
    },
    {
      "bufferView": 2,
      "byteOffset": 590976,
      "componentType": 5126,
      "count": 7782,
      "max": [
        104.45945739746094,
        5.0,
        104.45945739746094
      ],
      "min": [
        -104.45945739746094,
        -5.0,
        -104.45945739746094
      ],
      "type": "VEC3"
    },
    {
      "bufferView": 2,
      "byteOffset": 684360,
      "componentType": 5126,
      "count": 7782,
      "max": [
        0.9999945163726807,
        1.0,
        0.9999945163726807
      ],
      "min": [
        -0.9999945163726807,
        -1.0,
        -0.9999945163726807
      ],
      "type": "VEC3"
    },
    {
      "bufferView": 1,
      "byteOffset": 196992,
      "componentType": 5126,
      "count": 7782,
      "max": [
        1.0,
        1.0
      ],
      "min": [
        0.0,
        0.0
      ],
      "type": "VEC2"
    },
    {
      "bufferView": 0,
      "byteOffset": 506880,
      "componentType": 5125,
      "count": 23028,
      "type": "SCALAR"
    },
    {
      "bufferView": 2,
      "byteOffset": 777744,
      "componentType": 5126,
      "count": 22248,
      "max": [
        122.51676940917969,
        5.199999809265137,
        122.51676940917969
      ],
      "min": [
        -122.51676940917969,
        -5.199999809265137,
        -122.51676940917969
      ],
      "type": "VEC3"
    },
    {
      "bufferView": 2,
      "byteOffset": 1044720,
      "componentType": 5126,
      "count": 22248,
      "max": [
        1.0,
        1.0,
        1.0
      ],
      "min": [
        -1.0,
        -1.0,
        -1.0
      ],
      "type": "VEC3"
    },
    {
      "bufferView": 1,
      "byteOffset": 259248,
      "componentType": 5126,
      "count": 22248,
      "max": [
        1.0,
        1.0
      ],
      "min": [
        0.0,
        0.0
      ],
      "type": "VEC2"
    },
    {
      "bufferView": 0,
      "byteOffset": 598992,
      "componentType": 5125,
      "count": 110592,
      "type": "SCALAR"
    },
    {
      "bufferView": 2,
      "byteOffset": 1311696,
      "componentType": 5126,
      "count": 8398,
      "max": [
        147.82240295410156,
        13.077179908752441,
        147.82240295410156
      ],
      "min": [
        -147.82240295410156,
        -9.381318092346191,
        -147.82240295410156
      ],
      "type": "VEC3"
    },
    {
      "bufferView": 2,
      "byteOffset": 1412472,
      "componentType": 5126,
      "count": 8398,
      "max": [
        1.0,
        1.0,
        1.0
      ],
      "min": [
        -1.0,
        -1.0,
        -1.0
      ],
      "type": "VEC3"
    },
    {
      "bufferView": 1,
      "byteOffset": 437232,
      "componentType": 5126,
      "count": 8398,
      "max": [
        1.0,
        1.0
      ],
      "min": [
        0.0,
        0.0
      ],
      "type": "VEC2"
    },
    {
      "bufferView": 0,
      "byteOffset": 1041360,
      "componentType": 5125,
      "count": 23772,
      "type": "SCALAR"
    },
    {
      "bufferView": 2,
      "byteOffset": 1513248,
      "componentType": 5126,
      "count": 12220,
      "max": [
        149.63868713378906,
        9.0,
        149.63868713378906
      ],
      "min": [
        -149.63868713378906,
        -1.0,
        -149.63868713378906
      ],
      "type": "VEC3"
    },
    {
      "bufferView": 2,
      "byteOffset": 1659888,
      "componentType": 5126,
      "count": 12220,
      "max": [
        1.0,
        1.0,
        1.0
      ],
      "min": [
        -1.0,
        -1.0,
        -1.0
      ],
      "type": "VEC3"
    },
    {
      "bufferView": 1,
      "byteOffset": 504416,
      "componentType": 5126,
      "count": 12220,
      "max": [
        1.0,
        1.0
      ],
      "min": [
        0.0,
        0.0
      ],
      "type": "VEC2"
    },
    {
      "bufferView": 0,
      "byteOffset": 1136448,
      "componentType": 5125,
      "count": 36192,
      "type": "SCALAR"
    },
    {
      "bufferView": 2,
      "byteOffset": 1806528,
      "componentType": 5126,
      "count": 24624,
      "max": [
        114.11048889160156,
        12.0,
        114.11048889160156
      ],
      "min": [
        -114.11048889160156,
        0.0,
        -114.11048889160156
      ],
      "type": "VEC3"
    },
    {
      "bufferView": 2,
      "byteOffset": 2102016,
      "componentType": 5126,
      "count": 24624,
      "max": [
        1.0,
        1.0,
        1.0
      ],
      "min": [
        -1.0,
        -1.0,
        -1.0
      ],
      "type": "VEC3"
    },
    {
      "bufferView": 1,
      "byteOffset": 602176,
      "componentType": 5126,
      "count": 24624,
      "max": [
        1.0,
        1.0
      ],
      "min": [
        0.0,
        0.0
      ],
      "type": "VEC2"
    },
    {
      "bufferView": 0,
      "byteOffset": 1281216,
      "componentType": 5125,
      "count": 126720,
      "type": "SCALAR"
    }
  ],
  "asset": {
    "extras": {
      "author": "melaamory (https://sketchfab.com/melaamory)",
      "license": "CC-BY-4.0 (http://creativecommons.org/licenses/by/4.0/)",
      "source": "https://sketchfab.com/3d-models/gears-1fa1e31142714a11a2a77606c416aa05",
      "title": "Gears"
    },
    "generator": "Sketchfab-12.67.0",
    "version": "2.0"
  },
  "bufferViews": [
    {
      "buffer": 0,
      "byteLength": 1788096,
      "name": "floatBufferViews",
      "target": 34963
    },
    {
      "buffer": 0,
      "byteLength": 799168,
      "byteOffset": 1788096,
      "byteStride": 8,
      "name": "floatBufferViews",
      "target": 34962
    },
    {
      "buffer": 0,
      "byteLength": 2397504,
      "byteOffset": 2587264,
      "byteStride": 12,
      "name": "floatBufferViews",
      "target": 34962
    }
  ],
  "buffers": [
    {
      "byteLength": 4984768,
      "uri": "scene.bin"
    }
  ],
  "materials": [
    {
      "doubleSided": true,
      "name": "Scene_-_Root",
      "pbrMetallicRoughness": {
        "metallicFactor": 0.0,
        "roughnessFactor": 0.6
      }
    }
  ],
  "meshes": [
    {
      "name": "Subdivision_Surface__0",
      "primitives": [
        {
          "attributes": {
            "NORMAL": 1,
            "POSITION": 0,
            "TEXCOORD_0": 2
          },
          "indices": 3,
          "material": 0,
          "mode": 4
        }
      ]
    },
    {
      "name": "Extrude_1__0",
      "primitives": [
        {
          "attributes": {
            "NORMAL": 5,
            "POSITION": 4,
            "TEXCOORD_0": 6
          },
          "indices": 7,
          "material": 0,
          "mode": 4
        }
      ]
    },
    {
      "name": "Subdivision_Surface_2__0",
      "primitives": [
        {
          "attributes": {
            "NORMAL": 9,
            "POSITION": 8,
            "TEXCOORD_0": 10
          },
          "indices": 11,
          "material": 0,
          "mode": 4
        }
      ]
    },
    {
      "name": "Null_1__0",
      "primitives": [
        {
          "attributes": {
            "NORMAL": 13,
            "POSITION": 12,
            "TEXCOORD_0": 14
          },
          "indices": 15,
          "material": 0,
          "mode": 4
        }
      ]
    },
    {
      "name": "Extrude__0",
      "primitives": [
        {
          "attributes": {
            "NORMAL": 17,
            "POSITION": 16,
            "TEXCOORD_0": 18
          },
          "indices": 19,
          "material": 0,
          "mode": 4
        }
      ]
    },
    {
      "name": "Subdivision_Surface_1__0",
      "primitives": [
        {
          "attributes": {
            "NORMAL": 21,
            "POSITION": 20,
            "TEXCOORD_0": 22
          },
          "indices": 23,
          "material": 0,
          "mode": 4
        }
      ]
    }
  ],
  "nodes": [
    {
      "children": [
        1
      ],
      "matrix": [
        1.0,
        0.0,
        0.0,
        0.0,
        0.0,
        2.220446049250313e-16,
        -1.0,
        0.0,
        0.0,
        1.0,
        2.220446049250313e-16,
        0.0,
        0.0,
        0.0,
        0.0,
        1.0
      ],
      "name": "Sketchfab_model"
    },
    {
      "children": [
        2
      ],
      "matrix": [
        1.0,
        0.0,
        0.0,
        0.0,
        0.0,
        0.0,
        1.0,
        0.0,
        0.0,
        -1.0,
        0.0,
        0.0,
        0.0,
        0.0,
        0.0,
        1.0
      ],
      "name": "2d1a16bb52c749d9a3e9f61f7774f6e5.fbx"
    },
    {
      "children": [
        3,
        5,
        7,
        9,
        11,
        13
      ],
      "name": "RootNode"
    },
    {
      "children": [
        4
      ],
      "matrix": [
        1.0,
        0.0,
        0.0,
        0.0,
        0.0,
        1.0,
        0.0,
        0.0,
        0.0,
        0.0,
        1.0,
        0.0,
        226.38140869140625,
        0.0,
        197.59873962402344,
        1.0
      ],
      "name": "Subdivision_Surface"
    },
    {
      "mesh": 0,
      "name": "Subdivision_Surface__0"
    },
    {
      "children": [
        6
      ],
      "matrix": [
        1.0,
        0.0,
        0.0,
        0.0,
        0.0,
        1.0,
        0.0,
        0.0,
        0.0,
        0.0,
        1.0,
        0.0,
        177.46510314941406,
        0.0,
        -53.32044982910156,
        1.0
      ],
      "name": "Extrude_1"
    },
    {
      "mesh": 1,
      "name": "Extrude_1__0"
    },
    {
      "children": [
        8
      ],
      "matrix": [
        1.0,
        0.0,
        0.0,
        0.0,
        0.0,
        1.0,
        0.0,
        0.0,
        0.0,
        0.0,
        1.0,
        0.0,
        -12.28166675567627,
        5.199999809265137,
        70.6785659790039,
        1.0
      ],
      "name": "Subdivision_Surface_2"
    },
    {
      "mesh": 2,
      "name": "Subdivision_Surface_2__0"
    },
    {
      "children": [
        10
      ],
      "matrix": [
        1.0,
        0.0,
        0.0,
        0.0,
        0.0,
        1.0,
        0.0,
        0.0,
        0.0,
        0.0,
        1.0,
        0.0,
        -235.4142303466797,
        1.8479310274124146,
        210.67127990722656,
        1.0
      ],
      "name": "Null_1"
    },
    {
      "mesh": 3,
      "name": "Null_1__0"
    },
    {
      "children": [
        12
      ],
      "matrix": [
        1.0,
        0.0,
        0.0,
        0.0,
        0.0,
        1.0,
        0.0,
        0.0,
        0.0,
        0.0,
        1.0,
        0.0,
        226.38140869140625,
        0.0,
        197.59873962402344,
        1.0
      ],
      "name": "Extrude"
    },
    {
      "mesh": 4,
      "name": "Extrude__0"
    },
    {
      "children": [
        14
      ],
      "matrix": [
        1.0,
        0.0,
        0.0,
        0.0,
        0.0,
        1.0,
        0.0,
        0.0,
        0.0,
        0.0,
        1.0,
        0.0,
        -3.0124363899230957,
        0.0,
        341.1273498535156,
        1.0
      ],
      "name": "Subdivision_Surface_1"
    },
    {
      "mesh": 5,
      "name": "Subdivision_Surface_1__0"
    }
  ],
  "scene": 0,
  "scenes": [
    {
      "name": "Sketchfab_Scene",
      "nodes": [
        0
      ]
    }
  ]
}
