{
  "accessors": [
    {
      "bufferView": 2,
      "componentType": 5126,
      "count": 3364,
      "max": [
        18.318559646606445,
        306.6925964355469,
        146.98898315429688
      ],
      "min": [
        -18.318559646606445,
        -363.1242980957031,
        -146.98898315429688
      ],
      "type": "VEC3"
    },
    {
      "bufferView": 2,
      "byteOffset": 40368,
      "componentType": 5126,
      "count": 3364,
      "max": [
        1.0,
        1.0,
        1.0
      ],
      "min": [
        -1.0,
        -1.0,
        -1.0
      ],
      "type": "VEC3"
    },
    {
      "bufferView": 3,
      "componentType": 5126,
      "count": 3364,
      "max": [
        1.0,
        1.0,
        1.0,
        1.0
      ],
      "min": [
        -1.0,
        -1.0,
        -1.0,
        1.0
      ],
      "type": "VEC4"
    },
    {
      "bufferView": 1,
      "componentType": 5126,
      "count": 3364,
      "max": [
        0.971268355846405,
        0.99290531873703
      ],
      "min": [
        0.006865194067358971,
        0.006865194067358971
      ],
      "type": "VEC2"
    },
    {
      "bufferView": 0,
      "componentType": 5125,
      "count": 11322,
      "type": "SCALAR"
    },
    {
      "bufferView": 2,
      "byteOffset": 80736,
      "componentType": 5126,
      "count": 4476,
      "max": [
        205.55712890625,
        3.41801118850708,
        108.53496551513672
      ],
      "min": [
        -210.5151824951172,
        -8.27603816986084,
        -110.4130630493164
      ],
      "type": "VEC3"
    },
    {
      "bufferView": 2,
      "byteOffset": 134448,
      "componentType": 5126,
      "count": 4476,
      "max": [
        0.9856454730033875,
        0.9999985694885254,
        0.6291670203208923
      ],
      "min": [
        -0.7805498242378235,
        -0.9999996423721313,
        -0.6858131885528564
      ],
      "type": "VEC3"
    },
    {
      "bufferView": 3,
      "byteOffset": 53824,
      "componentType": 5126,
      "count": 4476,
      "max": [
        0.9355368614196777,
        0.7673210501670837,
        1.0,
        1.0
      ],
      "min": [
        -0.9191547632217407,
        -0.9911854863166809,
        -0.20613829791545868,
        1.0
      ],
      "type": "VEC4"
    },
    {
      "bufferView": 1,
      "byteOffset": 26912,
      "componentType": 5126,
      "count": 4476,
      "max": [
        1.0,
        0.9148058891296387
      ],
      "min": [
        0.0,
        0.0
      ],
      "type": "VEC2"
    },
    {
      "bufferView": 0,
      "byteOffset": 45288,
      "componentType": 5125,
      "count": 25296,
      "type": "SCALAR"
    }
  ],
  "asset": {
    "extras": {
      "author": "Sousinho (https://sketchfab.com/sousinho)",
      "license": "CC-BY-4.0 (http://creativecommons.org/licenses/by/4.0/)",
      "source": "https://sketchfab.com/3d-models/medieval-flag-b807b00647a7417da3e8654c85f78d87",
      "title": "Medieval Flag"
    },
    "generator": "Sketchfab-12.68.0",
    "version": "2.0"
  },
  "bufferViews": [
    {
      "buffer": 0,
      "byteLength": 146472,
      "name": "floatBufferViews",
      "target": 34963
    },
    {
      "buffer": 0,
      "byteLength": 62720,
      "byteOffset": 146472,
      "byteStride": 8,
      "name": "floatBufferViews",
      "target": 34962
    },
    {
      "buffer": 0,
      "byteLength": 188160,
      "byteOffset": 209192,
      "byteStride": 12,
      "name": "floatBufferViews",
      "target": 34962
    },
    {
      "buffer": 0,
      "byteLength": 125440,
      "byteOffset": 397352,
      "byteStride": 16,
      "name": "floatBufferViews",
      "target": 34962
    }
  ],
  "buffers": [
    {
      "byteLength": 522792,
      "uri": "scene.bin"
    }
  ],
  "images": [
    {
      "uri": "textures/pole_baseColor.png"
    },
    {
      "uri": "textures/pole_metallicRoughness.png"
    },
    {
      "uri": "textures/pole_normal.png"
    },
    {
      "uri": "textures/flag_baseColor.png"
    },
    {
      "uri": "textures/flag_metallicRoughness.png"
    },
    {
      "uri": "textures/flag_normal.png"
    }
  ],
  "materials": [
    {
      "doubleSided": true,
      "name": "pole",
      "normalTexture": {
        "index": 2
      },
      "pbrMetallicRoughness": {
        "baseColorTexture": {
          "index": 0
        },
        "metallicRoughnessTexture": {
          "index": 1
        }
      }
    },
    {
      "doubleSided": true,
      "name": "flag",
      "normalTexture": {
        "index": 5
      },
      "pbrMetallicRoughness": {
        "baseColorTexture": {
          "index": 3
        },
        "metallicFactor": 0.7556515209553168,
        "metallicRoughnessTexture": {
          "index": 4
        }
      }
    }
  ],
  "meshes": [
    {
      "name": "Cylinder.004_pole_0",
      "primitives": [
        {
          "attributes": {
            "NORMAL": 1,
            "POSITION": 0,
            "TANGENT": 2,
            "TEXCOORD_0": 3
          },
          "indices": 4,
          "material": 0,
          "mode": 4
        }
      ]
    },
    {
      "name": "Plane.004_flag_0",
      "primitives": [
        {
          "attributes": {
            "NORMAL": 6,
            "POSITION": 5,
            "TANGENT": 7,
            "TEXCOORD_0": 8
          },
          "indices": 9,
          "material": 1,
          "mode": 4
        }
      ]
    }
  ],
  "nodes": [
    {
      "children": [
        1
      ],
      "matrix": [
        1.0,
        0.0,
        0.0,
        0.0,
        0.0,
        2.220446049250313e-16,
        -1.0,
        0.0,
        0.0,
        1.0,
        2.220446049250313e-16,
        0.0,
        0.0,
        0.0,
        0.0,
        1.0
      ],
      "name": "Sketchfab_model"
    },
    {
      "children": [
        2
      ],
      "matrix": [
        0.009999999776482582,
        0.0,
        0.0,
        0.0,
        0.0,
        0.0,
        0.009999999776482582,
        0.0,
        0.0,
        -0.009999999776482582,
        0.0,
        0.0,
        0.0,
        0.0,
        0.0,
        1.0
      ],
      "name": "medieval flag.fbx"
    },
    {
      "children": [
        3,
        5
      ],
      "name": "RootNode"
    },
    {
      "children": [
        4
      ],
      "matrix": [
        1.0,
        0.0,
        0.0,
        0.0,
        0.0,
        1.0,
        0.0,
        0.0,
        0.0,
        0.0,
        1.0,
        0.0,
        -0.03980230167508125,
        362.98065185546875,
        1280.031005859375,
        1.0
      ],
      "name": "Cylinder.004"
    },
    {
      "mesh": 0,
      "name": "Cylinder.004_pole_0"
    },
    {
      "children": [
        6
      ],
      "matrix": [
        -1.6292067939183141e-07,
        0.9999999999999868,
        0.0,
        0.0,
        -0.9999999999999868,
        -1.6292067939183141e-07,
        0.0,
        0.0,
        0.0,
        0.0,
        1.0,
        0.0,
        -10.215054512023926,
        358.5801086425781,
        1280.5162353515625,
        1.0
      ],
      "name": "Plane.004"
    },
    {
      "mesh": 1,
      "name": "Plane.004_flag_0"
    }
  ],
  "samplers": [
    {
      "magFilter": 9729,
      "minFilter": 9987,
      "wrapS": 10497,
      "wrapT": 10497
    }
  ],
  "scene": 0,
  "scenes": [
    {
      "name": "Sketchfab_Scene",
      "nodes": [
        0
      ]
    }
  ],
  "textures": [
    {
      "sampler": 0,
      "source": 0
    },
    {
      "sampler": 0,
      "source": 1
    },
    {
      "sampler": 0,
      "source": 2
    },
    {
      "sampler": 0,
      "source": 3
    },
    {
      "sampler": 0,
      "source": 4
    },
    {
      "sampler": 0,
      "source": 5
    }
  ]
}
