{
  "accessors": [
    {
      "bufferView": 2,
      "componentType": 5126,
      "count": 65532,
      "max": [
        6.450788497924805,
        0.02586495690047741,
        10.112101554870605
      ],
      "min": [
        -9.579512596130371,
        -31.767913818359375,
        -3.6280367374420166
      ],
      "type": "VEC3"
    },
    {
      "bufferView": 2,
      "byteOffset": 786384,
      "componentType": 5126,
      "count": 65532,
      "max": [
        0.9989400506019592,
        0.9999930262565613,
        0.9999972581863403
      ],
      "min": [
        -0.9999808073043823,
        -0.9999867677688599,
        -0.9999936819076538
      ],
      "type": "VEC3"
    },
    {
      "bufferView": 1,
      "componentType": 5126,
      "count": 65532,
      "max": [
        0.9996340274810791,
        0.9998779892921448
      ],
      "min": [
        0.0,
        0.0
      ],
      "type": "VEC2"
    },
    {
      "bufferView": 0,
      "componentType": 5125,
      "count": 298107,
      "type": "SCALAR"
    },
    {
      "bufferView": 2,
      "byteOffset": 1572768,
      "componentType": 5126,
      "count": 56547,
      "max": [
        5.545013904571533,
        -1.0046138763427734,
        9.955585479736328
      ],
      "min": [
        -8.75452995300293,
        -31.27625274658203,
        -3.3581795692443848
      ],
      "type": "VEC3"
    },
    {
      "bufferView": 2,
      "byteOffset": 2251332,
      "componentType": 5126,
      "count": 56547,
      "max": [
        0.9999944567680359,
        0.9995955228805542,
        0.999988853931427
      ],
      "min": [
        -0.999745786190033,
        -0.9999988675117493,
        -0.9999936819076538
      ],
      "type": "VEC3"
    },
    {
      "bufferView": 1,
      "byteOffset": 524256,
      "componentType": 5126,
      "count": 56547,
      "max": [
        0.9996340274810791,
        0.9998779892921448
      ],
      "min": [
        0.00012199999764561653,
        0.0003659999929368496
      ],
      "type": "VEC2"
    },
    {
      "bufferView": 0,
      "byteOffset": 1192428,
      "componentType": 5125,
      "count": 221334,
      "type": "SCALAR"
    },
    {
      "bufferView": 2,
      "byteOffset": 2929896,
      "componentType": 5126,
      "count": 65532,
      "max": [
        5.525470733642578,
        -0.9707450866699219,
        10.100628852844238
      ],
      "min": [
        -8.95737361907959,
        -31.392948150634766,
        -2.8191189765930176
      ],
      "type": "VEC3"
    },
    {
      "bufferView": 2,
      "byteOffset": 3716280,
      "componentType": 5126,
      "count": 65532,
      "max": [
        0.9997497200965881,
        0.9997872114181519,
        0.9999959468841553
      ],
      "min": [
        -0.9991621971130371,
        -1.0,
        -0.9999998211860657
      ],
      "type": "VEC3"
    },
    {
      "bufferView": 1,
      "byteOffset": 976632,
      "componentType": 5126,
      "count": 65532,
      "max": [
        0.9996309876441956,
        1.9998780488967896
      ],
      "min": [
        0.00012199999764561653,
        1.000417947769165
      ],
      "type": "VEC2"
    },
    {
      "bufferView": 0,
      "byteOffset": 2077764,
      "componentType": 5125,
      "count": 347643,
      "type": "SCALAR"
    },
    {
      "bufferView": 2,
      "byteOffset": 4502664,
      "componentType": 5126,
      "count": 13639,
      "max": [
        4.869194507598877,
        -1.1301422119140625,
        7.686092376708984
      ],
      "min": [
        -4.089507102966309,
        -30.042499542236328,
        0.567835807800293
      ],
      "type": "VEC3"
    },
    {
      "bufferView": 2,
      "byteOffset": 4666332,
      "componentType": 5126,
      "count": 13639,
      "max": [
        0.9998623132705688,
        0.9992344975471497,
        0.9999959468841553
      ],
      "min": [
        -0.9929714202880859,
        -0.9999992847442627,
        -0.8914556503295898
      ],
      "type": "VEC3"
    },
    {
      "bufferView": 1,
      "byteOffset": 1500888,
      "componentType": 5126,
      "count": 13639,
      "max": [
        0.9635689854621887,
        1.9998780488967896
      ],
      "min": [
        0.00012199999764561653,
        1.0003770589828491
      ],
      "type": "VEC2"
    },
    {
      "bufferView": 0,
      "byteOffset": 3468336,
      "componentType": 5125,
      "count": 55485,
      "type": "SCALAR"
    },
    {
      "bufferView": 2,
      "byteOffset": 4830000,
      "componentType": 5126,
      "count": 8741,
      "max": [
        3.8538219928741455,
        -3.283477783203125,
        7.89435338973999
      ],
      "min": [
        -7.436318874359131,
        -31.245689392089844,
        -0.7455921173095703
      ],
      "type": "VEC3"
    },
    {
      "bufferView": 2,
      "byteOffset": 4934892,
      "componentType": 5126,
      "count": 8741,
      "max": [
        0.998958170413971,
        0.9731199741363525,
        0.9999509453773499
      ],
      "min": [
        -0.9999379515647888,
        -0.9999908804893494,
        -0.974557638168335
      ],
      "type": "VEC3"
    },
    {
      "bufferView": 1,
      "byteOffset": 1610000,
      "componentType": 5126,
      "count": 8741,
      "max": [
        0.9988939762115479,
        2.195678949356079
      ],
      "min": [
        0.00012199999764561653,
        2.000368118286133
      ],
      "type": "VEC2"
    },
    {
      "bufferView": 0,
      "byteOffset": 3690276,
      "componentType": 5125,
      "count": 38631,
      "type": "SCALAR"
    },
    {
      "bufferView": 2,
      "byteOffset": 5039784,
      "componentType": 5126,
      "count": 65532,
      "max": [
        6.450788497924805,
        -1.0297889709472656,
        9.327596664428711
      ],
      "min": [
        -8.136204719543457,
        -31.716197967529297,
        -3.282263994216919
      ],
      "type": "VEC3"
    },
    {
      "bufferView": 2,
      "byteOffset": 5826168,
      "componentType": 5126,
      "count": 65532,
      "max": [
        0.9999643564224243,
        0.9998247623443604,
        0.9999931454658508
      ],
      "min": [
        -0.9834227561950684,
        -0.9999995231628418,
        -0.9999977350234985
      ],
      "type": "VEC3"
    },
    {
      "bufferView": 1,
      "byteOffset": 1679928,
      "componentType": 5126,
      "count": 65532,
      "max": [
        1.9996329545974731,
        0.9998779892921448
      ],
      "min": [
        1.0001219511032104,
        0.00036700000055134296
      ],
      "type": "VEC2"
    },
    {
      "bufferView": 0,
      "byteOffset": 3844800,
      "componentType": 5125,
      "count": 336918,
      "type": "SCALAR"
    },
    {
      "bufferView": 2,
      "byteOffset": 6612552,
      "componentType": 5126,
      "count": 6583,
      "max": [
        3.494253396987915,
        -1.0705909729003906,
        7.86314058303833
      ],
      "min": [
        -6.601868152618408,
        -22.994293212890625,
        -1.5293478965759277
      ],
      "type": "VEC3"
    },
    {
      "bufferView": 2,
      "byteOffset": 6691548,
      "componentType": 5126,
      "count": 6583,
      "max": [
        0.9605506658554077,
        0.7879340052604675,
        0.9998958110809326
      ],
      "min": [
        -0.9901838898658752,
        -0.9999993443489075,
        -0.9999763369560242
      ],
      "type": "VEC3"
    },
    {
      "bufferView": 1,
      "byteOffset": 2204184,
      "componentType": 5126,
      "count": 6583,
      "max": [
        1.9747300148010254,
        0.9998779892921448
      ],
      "min": [
        1.101928949356079,
        0.00036800000816583633
      ],
      "type": "VEC2"
    },
    {
      "bufferView": 0,
      "byteOffset": 5192472,
      "componentType": 5125,
      "count": 24150,
      "type": "SCALAR"
    },
    {
      "bufferView": 2,
      "byteOffset": 6770544,
      "componentType": 5126,
      "count": 65532,
      "max": [
        5.56489372253418,
        -1.169992446899414,
        7.892085552215576
      ],
      "min": [
        -8.968311309814453,
        -31.669221878051758,
        -2.8529562950134277
      ],
      "type": "VEC3"
    },
    {
      "bufferView": 2,
      "byteOffset": 7556928,
      "componentType": 5126,
      "count": 65532,
      "max": [
        0.9999349117279053,
        0.9616466760635376,
        0.9999923706054688
      ],
      "min": [
        -0.9999905228614807,
        -0.999931275844574,
        -0.9999772310256958
      ],
      "type": "VEC3"
    },
    {
      "bufferView": 1,
      "byteOffset": 2256848,
      "componentType": 5126,
      "count": 65532,
      "max": [
        1.9996320009231567,
        1.9998780488967896
      ],
      "min": [
        1.0001219511032104,
        1.0003819465637207
      ],
      "type": "VEC2"
    },
    {
      "bufferView": 0,
      "byteOffset": 5289072,
      "componentType": 5125,
      "count": 340377,
      "type": "SCALAR"
    },
    {
      "bufferView": 2,
      "byteOffset": 8343312,
      "componentType": 5126,
      "count": 12421,
      "max": [
        4.341160774230957,
        -9.090047836303711,
        6.331697940826416
      ],
      "min": [
        -4.583950042724609,
        -29.978408813476563,
        0.017799854278564453
      ],
      "type": "VEC3"
    },
    {
      "bufferView": 2,
      "byteOffset": 8492364,
      "componentType": 5126,
      "count": 12421,
      "max": [
        0.9999968409538269,
        0.9710126519203186,
        0.9999923706054688
      ],
      "min": [
        -0.9999021887779236,
        -0.9922564029693604,
        -0.9986369013786316
      ],
      "type": "VEC3"
    },
    {
      "bufferView": 1,
      "byteOffset": 2781104,
      "componentType": 5126,
      "count": 12421,
      "max": [
        1.9996320009231567,
        1.996216058731079
      ],
      "min": [
        1.0023189783096313,
        1.0003960132598877
      ],
      "type": "VEC2"
    },
    {
      "bufferView": 0,
      "byteOffset": 6650580,
      "componentType": 5125,
      "count": 53094,
      "type": "SCALAR"
    },
    {
      "bufferView": 2,
      "byteOffset": 8641416,
      "componentType": 5126,
      "count": 65532,
      "max": [
        4.074961185455322,
        -1.2415828704833984,
        9.43818187713623
      ],
      "min": [
        -9.552083015441895,
        -31.77452278137207,
        -3.2756245136260986
      ],
      "type": "VEC3"
    },
    {
      "bufferView": 2,
      "byteOffset": 9427800,
      "componentType": 5126,
      "count": 65532,
      "max": [
        0.999994695186615,
        0.9909892678260803,
        0.9999571442604065
      ],
      "min": [
        -0.9999974370002747,
        -0.9999991059303284,
        -0.9967071413993835
      ],
      "type": "VEC3"
    },
    {
      "bufferView": 1,
      "byteOffset": 2880472,
      "componentType": 5126,
      "count": 65532,
      "max": [
        2.9996230602264404,
        0.9998779892921448
      ],
      "min": [
        2.0001220703125,
        0.0003760000108741224
      ],
      "type": "VEC2"
    },
    {
      "bufferView": 0,
      "byteOffset": 6862956,
      "componentType": 5125,
      "count": 338706,
      "type": "SCALAR"
    },
    {
      "bufferView": 2,
      "byteOffset": 10214184,
      "componentType": 5126,
      "count": 27524,
      "max": [
        4.486999988555908,
        -1.4619274139404297,
        7.229644775390625
      ],
      "min": [
        -8.353486061096191,
        -30.01775360107422,
        -2.398465633392334
      ],
      "type": "VEC3"
    },
    {
      "bufferView": 2,
      "byteOffset": 10544472,
      "componentType": 5126,
      "count": 27524,
      "max": [
        0.9999908208847046,
        0.9825015068054199,
        0.9999988079071045
      ],
      "min": [
        -0.9999751448631287,
        -0.9998576641082764,
        -0.9823814630508423
      ],
      "type": "VEC3"
    },
    {
      "bufferView": 1,
      "byteOffset": 3404728,
      "componentType": 5126,
      "count": 27524,
      "max": [
        2.999627113342285,
        0.9998779892921448
      ],
      "min": [
        2.0039310455322266,
        0.00039500001003034413
      ],
      "type": "VEC2"
    },
    {
      "bufferView": 0,
      "byteOffset": 8217780,
      "componentType": 5125,
      "count": 117057,
      "type": "SCALAR"
    },
    {
      "bufferView": 2,
      "byteOffset": 10874760,
      "componentType": 5126,
      "count": 65532,
      "max": [
        6.111948013305664,
        -1.1344890594482422,
        7.6114020347595215
      ],
      "min": [
        -6.589358806610107,
        -31.32099151611328,
        -1.0644335746765137
      ],
      "type": "VEC3"
    },
    {
      "bufferView": 2,
      "byteOffset": 11661144,
      "componentType": 5126,
      "count": 65532,
      "max": [
        0.9999979138374329,
        0.9992213845252991,
        0.999992311000824
      ],
      "min": [
        -0.9999836087226868,
        -0.9999966621398926,
        -0.9999803304672241
      ],
      "type": "VEC3"
    },
    {
      "bufferView": 1,
      "byteOffset": 3624920,
      "componentType": 5126,
      "count": 65532,
      "max": [
        2.999630928039551,
        1.9998780488967896
      ],
      "min": [
        2.0001220703125,
        1.0003739595413208
      ],
      "type": "VEC2"
    },
    {
      "bufferView": 0,
      "byteOffset": 8686008,
      "componentType": 5125,
      "count": 327249,
      "type": "SCALAR"
    },
    {
      "bufferView": 2,
      "byteOffset": 12447528,
      "componentType": 5126,
      "count": 18016,
      "max": [
        4.638770580291748,
        -9.076637268066406,
        6.708282947540283
      ],
      "min": [
        -4.969851493835449,
        -30.028287887573242,
        0.2681388854980469
      ],
      "type": "VEC3"
    },
    {
      "bufferView": 2,
      "byteOffset": 12663720,
      "componentType": 5126,
      "count": 18016,
      "max": [
        0.9992741346359253,
        0.9851418733596802,
        0.9999831318855286
      ],
      "min": [
        -0.9999465942382813,
        -0.9995743036270142,
        -0.9999158978462219
      ],
      "type": "VEC3"
    },
    {
      "bufferView": 1,
      "byteOffset": 4149176,
      "componentType": 5126,
      "count": 18016,
      "max": [
        2.9996299743652344,
        1.9998780488967896
      ],
      "min": [
        2.0001220703125,
        1.0003960132598877
      ],
      "type": "VEC2"
    },
    {
      "bufferView": 0,
      "byteOffset": 9995004,
      "componentType": 5125,
      "count": 81855,
      "type": "SCALAR"
    }
  ],
  "asset": {
    "extras": {
      "author": "aysenur (https://sketchfab.com/aysenur)",
      "license": "CC-BY-4.0 (http://creativecommons.org/licenses/by/4.0/)",
      "source": "https://sketchfab.com/3d-models/roman-period-woman-statue-knidos-530d3ed54651429585a63e7a1b9e1e6d",
      "title": "Roman Period Woman Statue - Knidos"
    },
    "generator": "Sketchfab-14.5.0",
    "version": "2.0"
  },
  "bufferViews": [
    {
      "buffer": 0,
      "byteLength": 10322424,
      "name": "floatBufferViews",
      "target": 34963
    },
    {
      "buffer": 0,
      "byteLength": 4293304,
      "byteOffset": 10322424,
      "byteStride": 8,
      "name": "floatBufferViews",
      "target": 34962
    },
    {
      "buffer": 0,
      "byteLength": 12879912,
      "byteOffset": 14615728,
      "byteStride": 12,
      "name": "floatBufferViews",
      "target": 34962
    }
  ],
  "buffers": [
    {
      "byteLength": 27495640,
      "uri": "scene.bin"
    }
  ],
  "images": [
    {
      "uri": "textures/muze_heykel_Material_u1_v1_baseColor.jpeg"
    },
    {
      "uri": "textures/muze_heykel_Material_u1_v2_baseColor.jpeg"
    },
    {
      "uri": "textures/muze_heykel_Material_u1_v3_baseColor.jpeg"
    },
    {
      "uri": "textures/muze_heykel_Material_u2_v1_baseColor.jpeg"
    },
    {
      "uri": "textures/muze_heykel_Material_u2_v2_baseColor.jpeg"
    },
    {
      "uri": "textures/muze_heykel_Material_u3_v1_baseColor.jpeg"
    },
    {
      "uri": "textures/muze_heykel_Material_u3_v2_baseColor.jpeg"
    }
  ],
  "materials": [
    {
      "doubleSided": true,
      "name": "muze_heykel_Material_u1_v1",
      "pbrMetallicRoughness": {
        "baseColorTexture": {
          "index": 0
        },
        "metallicFactor": 0.0
      }
    },
    {
      "doubleSided": true,
      "name": "muze_heykel_Material_u1_v2",
      "pbrMetallicRoughness": {
        "baseColorTexture": {
          "index": 1
        },
        "metallicFactor": 0.0
      }
    },
    {
      "doubleSided": true,
      "name": "muze_heykel_Material_u1_v3",
      "pbrMetallicRoughness": {
        "baseColorTexture": {
          "index": 2
        },
        "metallicFactor": 0.0
      }
    },
    {
      "doubleSided": true,
      "name": "muze_heykel_Material_u2_v1",
      "pbrMetallicRoughness": {
        "baseColorTexture": {
          "index": 3
        },
        "metallicFactor": 0.0
      }
    },
    {
      "doubleSided": true,
      "name": "muze_heykel_Material_u2_v2",
      "pbrMetallicRoughness": {
        "baseColorTexture": {
          "index": 4
        },
        "metallicFactor": 0.0
      }
    },
    {
      "doubleSided": true,
      "name": "muze_heykel_Material_u3_v1",
      "pbrMetallicRoughness": {
        "baseColorTexture": {
          "index": 5
        },
        "metallicFactor": 0.0
      }
    },
    {
      "doubleSided": true,
      "name": "muze_heykel_Material_u3_v2",
      "pbrMetallicRoughness": {
        "baseColorTexture": {
          "index": 6
        },
        "metallicFactor": 0.0
      }
    }
  ],
  "meshes": [
    {
      "name": "Object_0",
      "primitives": [
        {
          "attributes": {
            "NORMAL": 1,
            "POSITION": 0,
            "TEXCOORD_0": 2
          },
          "indices": 3,
          "material": 0,
          "mode": 4
        }
      ]
    },
    {
      "name": "Object_1",
      "primitives": [
        {
          "attributes": {
            "NORMAL": 5,
            "POSITION": 4,
            "TEXCOORD_0": 6
          },
          "indices": 7,
          "material": 0,
          "mode": 4
        }
      ]
    },
    {
      "name": "Object_2",
      "primitives": [
        {
          "attributes": {
            "NORMAL": 9,
            "POSITION": 8,
            "TEXCOORD_0": 10
          },
          "indices": 11,
          "material": 1,
          "mode": 4
        }
      ]
    },
    {
      "name": "Object_3",
      "primitives": [
        {
          "attributes": {
            "NORMAL": 13,
            "POSITION": 12,
            "TEXCOORD_0": 14
          },
          "indices": 15,
          "material": 1,
          "mode": 4
        }
      ]
    },
    {
      "name": "Object_4",
      "primitives": [
        {
          "attributes": {
            "NORMAL": 17,
            "POSITION": 16,
            "TEXCOORD_0": 18
          },
          "indices": 19,
          "material": 2,
          "mode": 4
        }
      ]
    },
    {
      "name": "Object_5",
      "primitives": [
        {
          "attributes": {
            "NORMAL": 21,
            "POSITION": 20,
            "TEXCOORD_0": 22
          },
          "indices": 23,
          "material": 3,
          "mode": 4
        }
      ]
    },
    {
      "name": "Object_6",
      "primitives": [
        {
          "attributes": {
            "NORMAL": 25,
            "POSITION": 24,
            "TEXCOORD_0": 26
          },
          "indices": 27,
          "material": 3,
          "mode": 4
        }
      ]
    },
    {
      "name": "Object_7",
      "primitives": [
        {
          "attributes": {
            "NORMAL": 29,
            "POSITION": 28,
            "TEXCOORD_0": 30
          },
          "indices": 31,
          "material": 4,
          "mode": 4
        }
      ]
    },
    {
      "name": "Object_8",
      "primitives": [
        {
          "attributes": {
            "NORMAL": 33,
            "POSITION": 32,
            "TEXCOORD_0": 34
          },
          "indices": 35,
          "material": 4,
          "mode": 4
        }
      ]
    },
    {
      "name": "Object_9",
      "primitives": [
        {
          "attributes": {
            "NORMAL": 37,
            "POSITION": 36,
            "TEXCOORD_0": 38
          },
          "indices": 39,
          "material": 5,
          "mode": 4
        }
      ]
    },
    {
      "name": "Object_10",
      "primitives": [
        {
          "attributes": {
            "NORMAL": 41,
            "POSITION": 40,
            "TEXCOORD_0": 42
          },
          "indices": 43,
          "material": 5,
          "mode": 4
        }
      ]
    },
    {
      "name": "Object_11",
      "primitives": [
        {
          "attributes": {
            "NORMAL": 45,
            "POSITION": 44,
            "TEXCOORD_0": 46
          },
          "indices": 47,
          "material": 6,
          "mode": 4
        }
      ]
    },
    {
      "name": "Object_12",
      "primitives": [
        {
          "attributes": {
            "NORMAL": 49,
            "POSITION": 48,
            "TEXCOORD_0": 50
          },
          "indices": 51,
          "material": 6,
          "mode": 4
        }
      ]
    }
  ],
  "nodes": [
    {
      "children": [
        1
      ],
      "matrix": [
        1.0,
        0.0,
        0.0,
        0.0,
        0.0,
        -0.9953125715255737,
        -0.09671055525541328,
        0.0,
        0.0,
        0.09671055525541328,
        -0.9953125715255737,
        0.0,
        0.0,
        0.0,
        0.0,
        1.0
      ],
      "name": "Sketchfab_model"
    },
    {
      "children": [
        2,
        3,
        4,
        5,
        6,
        7,
        8,
        9,
        10,
        11,
        12,
        13,
        14
      ],
      "name": "muze_heykel.obj.cleaner.materialmerger.gles"
    },
    {
      "mesh": 0,
      "name": "Object_2"
    },
    {
      "mesh": 1,
      "name": "Object_3"
    },
    {
      "mesh": 2,
      "name": "Object_4"
    },
    {
      "mesh": 3,
      "name": "Object_5"
    },
    {
      "mesh": 4,
      "name": "Object_6"
    },
    {
      "mesh": 5,
      "name": "Object_7"
    },
    {
      "mesh": 6,
      "name": "Object_8"
    },
    {
      "mesh": 7,
      "name": "Object_9"
    },
    {
      "mesh": 8,
      "name": "Object_10"
    },
    {
      "mesh": 9,
      "name": "Object_11"
    },
    {
      "mesh": 10,
      "name": "Object_12"
    },
    {
      "mesh": 11,
      "name": "Object_13"
    },
    {
      "mesh": 12,
      "name": "Object_14"
    }
  ],
  "samplers": [
    {
      "magFilter": 9729,
      "minFilter": 9987,
      "wrapS": 10497,
      "wrapT": 10497
    }
  ],
  "scene": 0,
  "scenes": [
    {
      "name": "Sketchfab_Scene",
      "nodes": [
        0
      ]
    }
  ],
  "textures": [
    {
      "sampler": 0,
      "source": 0
    },
    {
      "sampler": 0,
      "source": 1
    },
    {
      "sampler": 0,
      "source": 2
    },
    {
      "sampler": 0,
      "source": 3
    },
    {
      "sampler": 0,
      "source": 4
    },
    {
      "sampler": 0,
      "source": 5
    },
    {
      "sampler": 0,
      "source": 6
    }
  ]
}
