{
  "accessors": [
    {
      "bufferView": 2,
      "componentType": 5126,
      "count": 8,
      "max": [
        1.9751219749450684,
        3.9394280910491943,
        2.3114702701568604
      ],
      "min": [
        -1.9751219749450684,
        -0.010815886780619621,
        -1.638774037361145
      ],
      "type": "VEC3"
    },
    {
      "bufferView": 2,
      "byteOffset": 96,
      "componentType": 5126,
      "count": 8,
      "max": [
        0.0,
        0.0,
        1.0
      ],
      "min": [
        -1.0,
        -7.544426416927763e-09,
        0.0
      ],
      "type": "VEC3"
    },
    {
      "bufferView": 1,
      "componentType": 5126,
      "count": 8,
      "max": [
        0.9640916585922241,
        0.964567244052887
      ],
      "min": [
        0.03532479703426361,
        0.528031051158905
      ],
      "type": "VEC2"
    },
    {
      "bufferView": 1,
      "byteOffset": 64,
      "componentType": 5126,
      "count": 8,
      "max": [
        0.9422197341918945,
        0.4768611192703247
      ],
      "min": [
        0.04019707441329956,
        0.038146451115608215
      ],
      "type": "VEC2"
    },
    {
      "bufferView": 0,
      "componentType": 5125,
      "count": 12,
      "type": "SCALAR"
    },
    {
      "bufferView": 2,
      "byteOffset": 192,
      "componentType": 5126,
      "count": 2074,
      "max": [
        0.5541470050811768,
        1.9560199975967407,
        0.9593409895896912
      ],
      "min": [
        -0.5542759895324707,
        -1.9631710052490234,
        -0.9643949866294861
      ],
      "type": "VEC3"
    },
    {
      "bufferView": 2,
      "byteOffset": 25080,
      "componentType": 5126,
      "count": 2074,
      "max": [
        0.9935438632965088,
        0.9999772906303406,
        0.991824209690094
      ],
      "min": [
        -0.9915813207626343,
        -0.9999991059303284,
        -0.994625985622406
      ],
      "type": "VEC3"
    },
    {
      "bufferView": 3,
      "componentType": 5126,
      "count": 2074,
      "max": [
        0.9999715685844421,
        0.9970093965530396,
        0.9998618364334106,
        1.0
      ],
      "min": [
        -0.9999427199363708,
        -0.9989418983459473,
        -0.9998047947883606,
        -1.0
      ],
      "type": "VEC4"
    },
    {
      "bufferView": 1,
      "byteOffset": 128,
      "componentType": 5126,
      "count": 2074,
      "max": [
        0.9960938096046448,
        0.9960938096046448
      ],
      "min": [
        0.00390625,
        0.00390625
      ],
      "type": "VEC2"
    },
    {
      "bufferView": 0,
      "byteOffset": 48,
      "componentType": 5125,
      "count": 6636,
      "type": "SCALAR"
    }
  ],
  "asset": {
    "extras": {
      "author": "velsigh (https://sketchfab.com/velsigh)",
      "license": "CC-BY-4.0 (http://creativecommons.org/licenses/by/4.0/)",
      "source": "https://sketchfab.com/3d-models/torch-lowpoly-with-flame-47a0104978e3461ebe5a46c2457f6cdf",
      "title": "Torch lowpoly with flame"
    },
    "generator": "Sketchfab-13.23.0",
    "version": "2.0"
  },
  "bufferViews": [
    {
      "buffer": 0,
      "byteLength": 26592,
      "name": "floatBufferViews",
      "target": 34963
    },
    {
      "buffer": 0,
      "byteLength": 16720,
      "byteOffset": 26592,
      "byteStride": 8,
      "name": "floatBufferViews",
      "target": 34962
    },
    {
      "buffer": 0,
      "byteLength": 49968,
      "byteOffset": 43312,
      "byteStride": 12,
      "name": "floatBufferViews",
      "target": 34962
    },
    {
      "buffer": 0,
      "byteLength": 33184,
      "byteOffset": 93280,
      "byteStride": 16,
      "name": "floatBufferViews",
      "target": 34962
    }
  ],
  "buffers": [
    {
      "byteLength": 126464,
      "uri": "scene.bin"
    }
  ],
  "images": [
    {
      "uri": "textures/Flame_mat_baseColor.png"
    },
    {
      "uri": "textures/Flame_mat_emissive.png"
    },
    {
      "uri": "textures/Torch_mat_baseColor.png"
    },
    {
      "uri": "textures/Torch_mat_metallicRoughness.png"
    },
    {
      "uri": "textures/Torch_mat_normal.png"
    }
  ],
  "materials": [
    {
      "alphaMode": "BLEND",
      "doubleSided": true,
      "emissiveFactor": [
        1.0,
        1.0,
        1.0
      ],
      "emissiveTexture": {
        "index": 1
      },
      "name": "Flame_mat",
      "pbrMetallicRoughness": {
        "baseColorTexture": {
          "index": 0
        },
        "metallicFactor": 0.0
      }
    },
    {
      "doubleSided": true,
      "name": "Torch_mat",
      "normalTexture": {
        "index": 4
      },
      "occlusionTexture": {
        "index": 3
      },
      "pbrMetallicRoughness": {
        "baseColorTexture": {
          "index": 2
        },
        "metallicRoughnessTexture": {
          "index": 3
        }
      }
    }
  ],
  "meshes": [
    {
      "name": "flame_Flame_mat_0",
      "primitives": [
        {
          "attributes": {
            "NORMAL": 1,
            "POSITION": 0,
            "TEXCOORD_0": 2,
            "TEXCOORD_1": 3
          },
          "indices": 4,
          "material": 0,
          "mode": 4
        }
      ]
    },
    {
      "name": "Torch_Torch_mat_0",
      "primitives": [
        {
          "attributes": {
            "NORMAL": 6,
            "POSITION": 5,
            "TANGENT": 7,
            "TEXCOORD_0": 8
          },
          "indices": 9,
          "material": 1,
          "mode": 4
        }
      ]
    }
  ],
  "nodes": [
    {
      "children": [
        1
      ],
      "matrix": [
        29.336647033691406,
        0.0,
        0.0,
        0.0,
        0.0,
        6.5140442004211e-15,
        -29.336647033691406,
        0.0,
        0.0,
        29.336647033691406,
        6.5140442004211e-15,
        0.0,
        0.0,
        0.0,
        0.0,
        1.0
      ],
      "name": "Sketchfab_model"
    },
    {
      "children": [
        2
      ],
      "matrix": [
        0.009999999776482582,
        0.0,
        0.0,
        0.0,
        0.0,
        0.0,
        0.009999999776482582,
        0.0,
        0.0,
        -0.009999999776482582,
        0.0,
        0.0,
        0.0,
        0.0,
        0.0,
        1.0
      ],
      "name": "Torch_LP.fbx"
    },
    {
      "children": [
        3
      ],
      "name": "RootNode"
    },
    {
      "children": [
        4,
        6
      ],
      "matrix": [
        0.4959999918937683,
        0.0,
        0.0,
        0.0,
        0.0,
        0.4959999918937683,
        0.0,
        0.0,
        0.0,
        0.0,
        0.4959999918937683,
        0.0,
        0.0,
        0.49801677465438843,
        0.16951945424079895,
        1.0
      ],
      "name": "group1"
    },
    {
      "children": [
        5
      ],
      "name": "flame"
    },
    {
      "mesh": 0,
      "name": "flame_Flame_mat_0"
    },
    {
      "children": [
        7
      ],
      "name": "Torch"
    },
    {
      "mesh": 1,
      "name": "Torch_Torch_mat_0"
    }
  ],
  "samplers": [
    {
      "magFilter": 9729,
      "minFilter": 9987,
      "wrapS": 10497,
      "wrapT": 10497
    }
  ],
  "scene": 0,
  "scenes": [
    {
      "name": "Sketchfab_Scene",
      "nodes": [
        0
      ]
    }
  ],
  "textures": [
    {
      "sampler": 0,
      "source": 0
    },
    {
      "sampler": 0,
      "source": 1
    },
    {
      "sampler": 0,
      "source": 2
    },
    {
      "sampler": 0,
      "source": 3
    },
    {
      "sampler": 0,
      "source": 4
    }
  ]
}
