{
  "accessors": [
    {
      "bufferView": 2,
      "componentType": 5126,
      "count": 14245,
      "max": [
        4.954214096069336,
        5.11720085144043,
        19.94225311279297
      ],
      "min": [
        -5.331975936889648,
        -5.182355880737305,
        -0.19678500294685364
      ],
      "type": "VEC3"
    },
    {
      "bufferView": 2,
      "byteOffset": 170940,
      "componentType": 5126,
      "count": 14245,
      "max": [
        0.9998353123664856,
        0.999772846698761,
        0.9999896287918091
      ],
      "min": [
        -0.9999641180038452,
        -0.9999818801879883,
        -0.9999960660934448
      ],
      "type": "VEC3"
    },
    {
      "bufferView": 3,
      "componentType": 5126,
      "count": 14245,
      "max": [
        1.0,
        0.9999938607215881,
        0.9999215006828308,
        1.0
      ],
      "min": [
        -0.9999962449073792,
        -0.9999983906745911,
        -0.9999761581420898,
        -1.0
      ],
      "type": "VEC4"
    },
    {
      "bufferView": 1,
      "componentType": 5126,
      "count": 14245,
      "max": [
        0.9900000095367432,
        0.9900000095367432
      ],
      "min": [
        0.009999999776482582,
        0.0257750004529953
      ],
      "type": "VEC2"
    },
    {
      "bufferView": 0,
      "componentType": 5125,
      "count": 60423,
      "type": "SCALAR"
    }
  ],
  "asset": {
    "extras": {
      "author": "Elisey (https://sketchfab.com/dwelfster)",
      "license": "CC-BY-4.0 (http://creativecommons.org/licenses/by/4.0/)",
      "source": "https://sketchfab.com/3d-models/stone-column-da28e89fcb5649a687cf32075bfe7da9",
      "title": "Stone Column"
    },
    "generator": "Sketchfab-12.67.0",
    "version": "2.0"
  },
  "bufferViews": [
    {
      "buffer": 0,
      "byteLength": 241692,
      "name": "floatBufferViews",
      "target": 34963
    },
    {
      "buffer": 0,
      "byteLength": 113960,
      "byteOffset": 241692,
      "byteStride": 8,
      "name": "floatBufferViews",
      "target": 34962
    },
    {
      "buffer": 0,
      "byteLength": 341880,
      "byteOffset": 355652,
      "byteStride": 12,
      "name": "floatBufferViews",
      "target": 34962
    },
    {
      "buffer": 0,
      "byteLength": 227920,
      "byteOffset": 697532,
      "byteStride": 16,
      "name": "floatBufferViews",
      "target": 34962
    }
  ],
  "buffers": [
    {
      "byteLength": 925452,
      "uri": "scene.bin"
    }
  ],
  "extensionsRequired": [
    "KHR_materials_pbrSpecularGlossiness"
  ],
  "extensionsUsed": [
    "KHR_materials_pbrSpecularGlossiness"
  ],
  "images": [
    {
      "uri": "textures/None.001_diffuse.png"
    },
    {
      "uri": "textures/None.001_specularGlossiness.png"
    },
    {
      "uri": "textures/None.001_normal.png"
    },
    {
      "uri": "textures/None.001_occlusion.png"
    }
  ],
  "materials": [
    {
      "doubleSided": true,
      "extensions": {
        "KHR_materials_pbrSpecularGlossiness": {
          "diffuseFactor": [
            1.0,
            1.0,
            1.0,
            1.0
          ],
          "diffuseTexture": {
            "index": 0
          },
          "glossinessFactor": 1.0,
          "specularFactor": [
            1.0,
            1.0,
            1.0
          ],
          "specularGlossinessTexture": {
            "index": 1
          }
        }
      },
      "name": "None.001",
      "normalTexture": {
        "index": 2
      },
      "occlusionTexture": {
        "index": 3
      }
    }
  ],
  "meshes": [
    {
      "name": "Object_0",
      "primitives": [
        {
          "attributes": {
            "NORMAL": 1,
            "POSITION": 0,
            "TANGENT": 2,
            "TEXCOORD_0": 3
          },
          "indices": 4,
          "material": 0,
          "mode": 4
        }
      ]
    }
  ],
  "nodes": [
    {
      "children": [
        1
      ],
      "matrix": [
        0.12213402986526489,
        0.0,
        0.0,
        0.0,
        0.0,
        2.7119202409334718e-17,
        -0.12213402986526489,
        0.0,
        0.0,
        0.12213402986526489,
        2.7119202409334718e-17,
        0.0,
        0.0,
        0.0,
        0.0,
        1.0
      ],
      "name": "Sketchfab_model"
    },
    {
      "children": [
        2
      ],
      "name": "Column.obj.cleaner.materialmerger.gles"
    },
    {
      "mesh": 0,
      "name": "Object_2"
    }
  ],
  "samplers": [
    {
      "magFilter": 9729,
      "minFilter": 9987,
      "wrapS": 10497,
      "wrapT": 10497
    }
  ],
  "scene": 0,
  "scenes": [
    {
      "name": "Sketchfab_Scene",
      "nodes": [
        0
      ]
    }
  ],
  "textures": [
    {
      "sampler": 0,
      "source": 0
    },
    {
      "sampler": 0,
      "source": 1
    },
    {
      "sampler": 0,
      "source": 2
    },
    {
      "sampler": 0,
      "source": 3
    }
  ]
}
