{
  "accessors": [
    {
      "bufferView": 2,
      "componentType": 5126,
      "count": 44508,
      "max": [
        109.95997619628906,
        56.66485595703125,
        14.704878807067871
      ],
      "min": [
        -107.03805541992188,
        -64.74041748046875,
        -2.9637632369995117
      ],
      "type": "VEC3"
    },
    {
      "bufferView": 2,
      "byteOffset": 534096,
      "componentType": 5126,
      "count": 44508,
      "max": [
        1.0,
        1.0,
        1.0
      ],
      "min": [
        -1.0,
        -1.0,
        -1.0
      ],
      "type": "VEC3"
    },
    {
      "bufferView": 1,
      "componentType": 5126,
      "count": 44508,
      "max": [
        1.0,
        1.0
      ],
      "min": [
        0.0,
        0.0
      ],
      "type": "VEC2"
    },
    {
      "bufferView": 0,
      "componentType": 5125,
      "count": 103680,
      "type": "SCALAR"
    },
    {
      "bufferView": 2,
      "byteOffset": 1068192,
      "componentType": 5126,
      "count": 7358,
      "max": [
        77.00088500976563,
        -117.28411865234375,
        11.811023712158203
      ],
      "min": [
        -78.82855224609375,
        -234.0496368408203,
        0.0
      ],
      "type": "VEC3"
    },
    {
      "bufferView": 2,
      "byteOffset": 1156488,
      "componentType": 5126,
      "count": 7358,
      "max": [
        0.9972350597381592,
        1.0,
        1.0
      ],
      "min": [
        -0.9977050423622131,
        -0.999999463558197,
        -1.0
      ],
      "type": "VEC3"
    },
    {
      "bufferView": 1,
      "byteOffset": 356064,
      "componentType": 5126,
      "count": 7358,
      "max": [
        0.9941356778144836,
        -0.5044413805007935
      ],
      "min": [
        -0.005864322185516357,
        -1.504441499710083
      ],
      "type": "VEC2"
    },
    {
      "bufferView": 0,
      "byteOffset": 414720,
      "componentType": 5125,
      "count": 25728,
      "type": "SCALAR"
    }
  ],
  "asset": {
    "extras": {
      "author": "Lucid Dreams (https://sketchfab.com/vjluciddreams)",
      "license": "CC-BY-4.0 (http://creativecommons.org/licenses/by/4.0/)",
      "source": "https://sketchfab.com/3d-models/iluminati-eye-symbol-free-715b9b9ad87b40bd828adc2beb7eb275",
      "title": "Iluminati Eye Symbol ( free )"
    },
    "generator": "Sketchfab-12.67.0",
    "version": "2.0"
  },
  "bufferViews": [
    {
      "buffer": 0,
      "byteLength": 517632,
      "name": "floatBufferViews",
      "target": 34963
    },
    {
      "buffer": 0,
      "byteLength": 414928,
      "byteOffset": 517632,
      "byteStride": 8,
      "name": "floatBufferViews",
      "target": 34962
    },
    {
      "buffer": 0,
      "byteLength": 1244784,
      "byteOffset": 932560,
      "byteStride": 12,
      "name": "floatBufferViews",
      "target": 34962
    }
  ],
  "buffers": [
    {
      "byteLength": 2177344,
      "uri": "scene.bin"
    }
  ],
  "images": [
    {
      "uri": "textures/02_-_Default_baseColor.jpeg"
    },
    {
      "uri": "textures/02_-_Default_metallicRoughness.png"
    }
  ],
  "materials": [
    {
      "doubleSided": true,
      "name": "02_-_Default",
      "pbrMetallicRoughness": {
        "baseColorTexture": {
          "index": 0
        },
        "metallicRoughnessTexture": {
          "index": 1
        }
      }
    }
  ],
  "meshes": [
    {
      "name": "eye_out001_02 - Default_0",
      "primitives": [
        {
          "attributes": {
            "NORMAL": 1,
            "POSITION": 0,
            "TEXCOORD_0": 2
          },
          "indices": 3,
          "material": 0,
          "mode": 4
        }
      ]
    },
    {
      "name": "spikes002_02 - Default_0",
      "primitives": [
        {
          "attributes": {
            "NORMAL": 5,
            "POSITION": 4,
            "TEXCOORD_0": 6
          },
          "indices": 7,
          "material": 0,
          "mode": 4
        }
      ]
    }
  ],
  "nodes": [
    {
      "children": [
        1
      ],
      "matrix": [
        -0.0061532193794846535,
        6.122813393430172e-17,
        -0.9999810457229614,
        0.0,
        -0.9999810457229614,
        -1.3662891661346669e-18,
        0.0061532193794846535,
        0.0,
        -9.895131534053343e-19,
        1.0,
        6.123538665391259e-17,
        0.0,
        -3.412590265274048,
        -1.6824512688168606e-09,
        -3.5926873683929443,
        1.0
      ],
      "name": "Sketchfab_model"
    },
    {
      "children": [
        2
      ],
      "matrix": [
        0.02539999969303608,
        0.0,
        0.0,
        0.0,
        0.0,
        0.0,
        0.02539999969303608,
        0.0,
        0.0,
        -0.02539999969303608,
        0.0,
        0.0,
        0.0,
        0.0,
        0.0,
        1.0
      ],
      "name": "012766b6db2f42fba795815a4d60e8e9.fbx"
    },
    {
      "children": [
        3,
        5
      ],
      "name": "RootNode"
    },
    {
      "children": [
        4
      ],
      "matrix": [
        0.22015999257564545,
        0.0,
        0.0,
        0.0,
        0.0,
        0.22015999257564522,
        9.623499311762086e-09,
        0.0,
        0.0,
        -4.46986133100487e-08,
        1.0225850343704213,
        0.0,
        -137.78695678710938,
        -1.8078441619873047,
        -9.960479736328125,
        1.0
      ],
      "name": "eye_out001"
    },
    {
      "mesh": 0,
      "name": "eye_out001_02 - Default_0"
    },
    {
      "children": [
        6
      ],
      "matrix": [
        0.22015999257564545,
        0.0,
        0.0,
        0.0,
        0.0,
        0.22015999257564522,
        9.62349916510607e-09,
        0.0,
        0.0,
        -2.235234421297781e-08,
        0.5113620162010187,
        0.0,
        -137.78695678710938,
        -1.8078444004058838,
        -5.705362319946289,
        1.0
      ],
      "name": "spikes002"
    },
    {
      "mesh": 1,
      "name": "spikes002_02 - Default_0"
    }
  ],
  "samplers": [
    {
      "magFilter": 9729,
      "minFilter": 9987,
      "wrapS": 10497,
      "wrapT": 10497
    }
  ],
  "scene": 0,
  "scenes": [
    {
      "name": "Sketchfab_Scene",
      "nodes": [
        0
      ]
    }
  ],
  "textures": [
    {
      "sampler": 0,
      "source": 0
    },
    {
      "sampler": 0,
      "source": 1
    }
  ]
}
