{
  "accessors": [
    {
      "bufferView": 2,
      "componentType": 5126,
      "count": 7758,
      "max": [
        2.4861676692962646,
        5.790547847747803,
        0.5058677196502686
      ],
      "min": [
        -2.693552017211914,
        -5.790546894073486,
        -0.7683759331703186
      ],
      "type": "VEC3"
    },
    {
      "bufferView": 2,
      "byteOffset": 93096,
      "componentType": 5126,
      "count": 7758,
      "max": [
        1.0,
        1.0,
        1.0
      ],
      "min": [
        -1.0,
        -1.0,
        -1.0
      ],
      "type": "VEC3"
    },
    {
      "bufferView": 3,
      "componentType": 5126,
      "count": 7758,
      "max": [
        1.0,
        1.0,
        1.0,
        1.0
      ],
      "min": [
        -1.0,
        -1.0,
        -1.0,
        -1.0
      ],
      "type": "VEC4"
    },
    {
      "bufferView": 1,
      "componentType": 5126,
      "count": 7758,
      "max": [
        0.9978529214859009,
        1.0
      ],
      "min": [
        0.0,
        0.0
      ],
      "type": "VEC2"
    },
    {
      "bufferView": 0,
      "componentType": 5125,
      "count": 41214,
      "type": "SCALAR"
    }
  ],
  "asset": {
    "extras": {
      "author": "caior (https://sketchfab.com/caior)",
      "license": "CC-BY-4.0 (http://creativecommons.org/licenses/by/4.0/)",
      "source": "https://sketchfab.com/3d-models/key-dccd0d629d704cc2bde905572b0947da",
      "title": "Key"
    },
    "generator": "Sketchfab-12.68.0",
    "version": "2.0"
  },
  "bufferViews": [
    {
      "buffer": 0,
      "byteLength": 164856,
      "name": "floatBufferViews",
      "target": 34963
    },
    {
      "buffer": 0,
      "byteLength": 62064,
      "byteOffset": 164856,
      "byteStride": 8,
      "name": "floatBufferViews",
      "target": 34962
    },
    {
      "buffer": 0,
      "byteLength": 186192,
      "byteOffset": 226920,
      "byteStride": 12,
      "name": "floatBufferViews",
      "target": 34962
    },
    {
      "buffer": 0,
      "byteLength": 124128,
      "byteOffset": 413112,
      "byteStride": 16,
      "name": "floatBufferViews",
      "target": 34962
    }
  ],
  "buffers": [
    {
      "byteLength": 537240,
      "uri": "scene.bin"
    }
  ],
  "images": [
    {
      "uri": "textures/ai_Key_baseColor.jpeg"
    },
    {
      "uri": "textures/ai_Key_metallicRoughness.png"
    },
    {
      "uri": "textures/ai_Key_normal.png"
    }
  ],
  "materials": [
    {
      "doubleSided": true,
      "name": "ai_Key",
      "normalTexture": {
        "index": 2
      },
      "occlusionTexture": {
        "index": 1
      },
      "pbrMetallicRoughness": {
        "baseColorTexture": {
          "index": 0
        },
        "metallicRoughnessTexture": {
          "index": 1
        }
      }
    }
  ],
  "meshes": [
    {
      "name": "Key_ai_Key_0",
      "primitives": [
        {
          "attributes": {
            "NORMAL": 1,
            "POSITION": 0,
            "TANGENT": 2,
            "TEXCOORD_0": 3
          },
          "indices": 4,
          "material": 0,
          "mode": 4
        }
      ]
    }
  ],
  "nodes": [
    {
      "children": [
        1
      ],
      "matrix": [
        0.1421566754579544,
        0.0,
        0.0,
        0.0,
        0.0,
        3.156512283951738e-17,
        -0.1421566754579544,
        0.0,
        0.0,
        0.1421566754579544,
        3.156512283951738e-17,
        0.0,
        0.0,
        0.0,
        0.0,
        1.0
      ],
      "name": "Sketchfab_model"
    },
    {
      "children": [
        2
      ],
      "matrix": [
        1.0,
        0.0,
        0.0,
        0.0,
        0.0,
        0.0,
        1.0,
        0.0,
        0.0,
        -1.0,
        0.0,
        0.0,
        0.0,
        0.0,
        0.0,
        1.0
      ],
      "name": "d3885826bef24e7fb43388174c560a5d.fbx"
    },
    {
      "children": [
        3
      ],
      "name": "RootNode"
    },
    {
      "children": [
        4
      ],
      "name": "Key"
    },
    {
      "mesh": 0,
      "name": "Key_ai_Key_0"
    }
  ],
  "samplers": [
    {
      "magFilter": 9729,
      "minFilter": 9987,
      "wrapS": 10497,
      "wrapT": 10497
    }
  ],
  "scene": 0,
  "scenes": [
    {
      "name": "Sketchfab_Scene",
      "nodes": [
        0
      ]
    }
  ],
  "textures": [
    {
      "sampler": 0,
      "source": 0
    },
    {
      "sampler": 0,
      "source": 1
    },
    {
      "sampler": 0,
      "source": 2
    }
  ]
}
