{
  "accessors": [
    {
      "bufferView": 2,
      "componentType": 5126,
      "count": 1095,
      "max": [
        191.01785278320313,
        190.87527465820313,
        8.643317222595215
      ],
      "min": [
        -190.84365844726563,
        -190.82412719726563,
        -23.17043113708496
      ],
      "type": "VEC3"
    },
    {
      "bufferView": 2,
      "byteOffset": 13140,
      "componentType": 5126,
      "count": 1095,
      "max": [
        0.9999033808708191,
        0.9997937083244324,
        0.9996541142463684
      ],
      "min": [
        -0.9999033808708191,
        -0.9997935891151428,
        -0.9999914765357971
      ],
      "type": "VEC3"
    },
    {
      "bufferView": 3,
      "componentType": 5126,
      "count": 1095,
      "max": [
        0.9999340772628784,
        0.9999932646751404,
        0.9956119060516357,
        1.0
      ],
      "min": [
        -0.9999054074287415,
        -0.9998038411140442,
        -0.998823881149292,
        1.0
      ],
      "type": "VEC4"
    },
    {
      "bufferView": 1,
      "componentType": 5126,
      "count": 1095,
      "max": [
        0.9911223649978638,
        0.9909400343894958
      ],
      "min": [
        0.008867410942912102,
        0.007705708499997854
      ],
      "type": "VEC2"
    },
    {
      "bufferView": 0,
      "componentType": 5125,
      "count": 3327,
      "type": "SCALAR"
    },
    {
      "bufferView": 2,
      "byteOffset": 26280,
      "componentType": 5126,
      "count": 32,
      "max": [
        191.04415893554688,
        191.04415893554688,
        0.0
      ],
      "min": [
        -191.04415893554688,
        -191.04415893554688,
        -23.226625442504883
      ],
      "type": "VEC3"
    },
    {
      "bufferView": 2,
      "byteOffset": 26664,
      "componentType": 5126,
      "count": 32,
      "max": [
        1.0,
        1.0,
        1.0
      ],
      "min": [
        -1.0,
        -1.0,
        -1.3405462517823707e-08
      ],
      "type": "VEC3"
    },
    {
      "bufferView": 3,
      "byteOffset": 17520,
      "componentType": 5126,
      "count": 32,
      "max": [
        1.0,
        3.1709402037449763e-07,
        1.0,
        1.0
      ],
      "min": [
        -7.442045557581878e-08,
        -1.6242798039911577e-07,
        -1.0,
        -1.0
      ],
      "type": "VEC4"
    },
    {
      "bufferView": 1,
      "byteOffset": 8760,
      "componentType": 5126,
      "count": 32,
      "max": [
        0.9999999403953552,
        0.9999996423721313
      ],
      "min": [
        0.0,
        0.0
      ],
      "type": "VEC2"
    },
    {
      "bufferView": 0,
      "byteOffset": 13308,
      "componentType": 5125,
      "count": 48,
      "type": "SCALAR"
    },
    {
      "bufferView": 2,
      "byteOffset": 27048,
      "componentType": 5126,
      "count": 320,
      "max": [
        121.57469940185547,
        167.66098022460938,
        24.314674377441406
      ],
      "min": [
        -107.90470123291016,
        -153.73690795898438,
        -19.129426956176758
      ],
      "type": "VEC3"
    },
    {
      "bufferView": 2,
      "byteOffset": 30888,
      "componentType": 5126,
      "count": 320,
      "max": [
        0.9966909885406494,
        0.9943503141403198,
        0.46347877383232117
      ],
      "min": [
        -0.9866182804107666,
        -0.9888558387756348,
        -0.31285303831100464
      ],
      "type": "VEC3"
    },
    {
      "bufferView": 3,
      "byteOffset": 18032,
      "componentType": 5126,
      "count": 320,
      "max": [
        0.9810022115707397,
        0.9999983310699463,
        0.018726710230112076,
        1.0
      ],
      "min": [
        -0.9998654127120972,
        -0.6622161269187927,
        -0.9985718131065369,
        1.0
      ],
      "type": "VEC4"
    },
    {
      "bufferView": 1,
      "byteOffset": 9016,
      "componentType": 5126,
      "count": 320,
      "max": [
        0.9790130257606506,
        0.9920838475227356
      ],
      "min": [
        0.007886205799877644,
        0.020285608246922493
      ],
      "type": "VEC2"
    },
    {
      "bufferView": 0,
      "byteOffset": 13500,
      "componentType": 5125,
      "count": 480,
      "type": "SCALAR"
    }
  ],
  "asset": {
    "extras": {
      "author": "4Engine (https://sketchfab.com/4Engine)",
      "license": "CC-BY-4.0 (http://creativecommons.org/licenses/by/4.0/)",
      "source": "https://sketchfab.com/3d-models/stone-floor-945d60fd01874c029a1e0cdef1184995",
      "title": "Stone Floor"
    },
    "generator": "Sketchfab-12.66.0",
    "version": "2.0"
  },
  "bufferViews": [
    {
      "buffer": 0,
      "byteLength": 15420,
      "name": "floatBufferViews",
      "target": 34963
    },
    {
      "buffer": 0,
      "byteLength": 11576,
      "byteOffset": 15420,
      "byteStride": 8,
      "name": "floatBufferViews",
      "target": 34962
    },
    {
      "buffer": 0,
      "byteLength": 34728,
      "byteOffset": 26996,
      "byteStride": 12,
      "name": "floatBufferViews",
      "target": 34962
    },
    {
      "buffer": 0,
      "byteLength": 23152,
      "byteOffset": 61724,
      "byteStride": 16,
      "name": "floatBufferViews",
      "target": 34962
    }
  ],
  "buffers": [
    {
      "byteLength": 84876,
      "uri": "scene.bin"
    }
  ],
  "images": [
    {
      "uri": "textures/StoneFloorDetails_baseColor.jpeg"
    },
    {
      "uri": "textures/StoneFloorDetails_normal.png"
    },
    {
      "uri": "textures/StoneFloor_baseColor.jpeg"
    },
    {
      "uri": "textures/StoneFloor_normal.png"
    },
    {
      "uri": "textures/StoneFloorGrass_baseColor.png"
    },
    {
      "uri": "textures/StoneFloorGrass_normal.png"
    }
  ],
  "materials": [
    {
      "doubleSided": true,
      "name": "StoneFloorDetails",
      "normalTexture": {
        "index": 1
      },
      "pbrMetallicRoughness": {
        "baseColorTexture": {
          "index": 0
        },
        "metallicFactor": 0.0,
        "roughnessFactor": 0.6
      }
    },
    {
      "doubleSided": true,
      "name": "StoneFloor",
      "normalTexture": {
        "index": 3
      },
      "pbrMetallicRoughness": {
        "baseColorTexture": {
          "index": 2
        },
        "metallicFactor": 0.0,
        "roughnessFactor": 0.6
      }
    },
    {
      "alphaCutoff": 0.25,
      "alphaMode": "MASK",
      "doubleSided": true,
      "name": "StoneFloorGrass",
      "normalTexture": {
        "index": 5
      },
      "pbrMetallicRoughness": {
        "baseColorTexture": {
          "index": 4
        },
        "metallicFactor": 0.0,
        "roughnessFactor": 0.6
      }
    }
  ],
  "meshes": [
    {
      "name": "StoneFloor_Details_StoneFloorDetails_0",
      "primitives": [
        {
          "attributes": {
            "NORMAL": 1,
            "POSITION": 0,
            "TANGENT": 2,
            "TEXCOORD_0": 3
          },
          "indices": 4,
          "material": 0,
          "mode": 4
        }
      ]
    },
    {
      "name": "StoneFloor_StoneFloor_0",
      "primitives": [
        {
          "attributes": {
            "NORMAL": 6,
            "POSITION": 5,
            "TANGENT": 7,
            "TEXCOORD_0": 8
          },
          "indices": 9,
          "material": 1,
          "mode": 4
        }
      ]
    },
    {
      "name": "StoneFloor_Grass_StoneFloorGrass_0",
      "primitives": [
        {
          "attributes": {
            "NORMAL": 11,
            "POSITION": 10,
            "TANGENT": 12,
            "TEXCOORD_0": 13
          },
          "indices": 14,
          "material": 2,
          "mode": 4
        }
      ]
    }
  ],
  "nodes": [
    {
      "children": [
        1
      ],
      "matrix": [
        1.0,
        0.0,
        0.0,
        0.0,
        0.0,
        2.220446049250313e-16,
        -1.0,
        0.0,
        0.0,
        1.0,
        2.220446049250313e-16,
        0.0,
        0.0,
        0.0,
        0.0,
        1.0
      ],
      "name": "Sketchfab_model"
    },
    {
      "children": [
        2
      ],
      "matrix": [
        1.0,
        0.0,
        0.0,
        0.0,
        0.0,
        0.0,
        1.0,
        0.0,
        0.0,
        -1.0,
        0.0,
        0.0,
        0.0,
        0.0,
        0.0,
        1.0
      ],
      "name": "e615c730fa74474aa0c9791145de2599.fbx"
    },
    {
      "children": [
        3,
        5,
        7
      ],
      "name": "RootNode"
    },
    {
      "children": [
        4
      ],
      "matrix": [
        1.0,
        0.0,
        0.0,
        0.0,
        0.0,
        -1.6292067939183141e-07,
        -0.9999999999999868,
        0.0,
        0.0,
        0.9999999999999868,
        -1.6292067939183141e-07,
        0.0,
        0.0,
        0.0,
        -1.9073486328125e-06,
        1.0
      ],
      "name": "StoneFloor_Details"
    },
    {
      "mesh": 0,
      "name": "StoneFloor_Details_StoneFloorDetails_0"
    },
    {
      "children": [
        6
      ],
      "matrix": [
        1.0,
        0.0,
        0.0,
        0.0,
        0.0,
        -1.6292067939183141e-07,
        -0.9999999999999868,
        0.0,
        0.0,
        0.9999999999999868,
        -1.6292067939183141e-07,
        0.0,
        0.0,
        0.0,
        0.0,
        1.0
      ],
      "name": "StoneFloor"
    },
    {
      "mesh": 1,
      "name": "StoneFloor_StoneFloor_0"
    },
    {
      "children": [
        8
      ],
      "matrix": [
        1.0,
        0.0,
        0.0,
        0.0,
        0.0,
        -1.6292067939183141e-07,
        -0.9999999999999868,
        0.0,
        0.0,
        0.9999999999999868,
        -1.6292067939183141e-07,
        0.0,
        0.0,
        0.0,
        1.9073486328125e-06,
        1.0
      ],
      "name": "StoneFloor_Grass"
    },
    {
      "mesh": 2,
      "name": "StoneFloor_Grass_StoneFloorGrass_0"
    }
  ],
  "samplers": [
    {
      "magFilter": 9729,
      "minFilter": 9987,
      "wrapS": 10497,
      "wrapT": 10497
    }
  ],
  "scene": 0,
  "scenes": [
    {
      "name": "Sketchfab_Scene",
      "nodes": [
        0
      ]
    }
  ],
  "textures": [
    {
      "sampler": 0,
      "source": 0
    },
    {
      "sampler": 0,
      "source": 1
    },
    {
      "sampler": 0,
      "source": 2
    },
    {
      "sampler": 0,
      "source": 3
    },
    {
      "sampler": 0,
      "source": 4
    },
    {
      "sampler": 0,
      "source": 5
    }
  ]
}
