{
  "accessors": [
    {
      "bufferView": 2,
      "componentType": 5126,
      "count": 10782,
      "max": [
        3.708250045776367,
        3.708250045776367,
        9.160619735717773
      ],
      "min": [
        -3.708250045776367,
        -3.708250045776367,
        1.2498799562454224
      ],
      "type": "VEC3"
    },
    {
      "bufferView": 2,
      "byteOffset": 129384,
      "componentType": 5126,
      "count": 10782,
      "max": [
        0.9999985098838806,
        0.9999985098838806,
        0.9990365505218506
      ],
      "min": [
        -0.9999985098838806,
        -0.9999985098838806,
        -0.9991557598114014
      ],
      "type": "VEC3"
    },
    {
      "bufferView": 3,
      "componentType": 5126,
      "count": 10782,
      "max": [
        1.0,
        1.0,
        0.9999934434890747,
        1.0
      ],
      "min": [
        -1.0,
        -0.9999993443489075,
        -0.9992815852165222,
        1.0
      ],
      "type": "VEC4"
    },
    {
      "bufferView": 1,
      "componentType": 5126,
      "count": 10782,
      "max": [
        0.9925789833068848,
        0.9790610074996948
      ],
      "min": [
        0.009317000396549702,
        0.014646999537944794
      ],
      "type": "VEC2"
    },
    {
      "bufferView": 0,
      "componentType": 5125,
      "count": 55104,
      "type": "SCALAR"
    },
    {
      "bufferView": 2,
      "byteOffset": 258768,
      "componentType": 5126,
      "count": 5605,
      "max": [
        4.098400115966797,
        4.096149921417236,
        9.764089584350586
      ],
      "min": [
        -4.098400115966797,
        -4.100649833679199,
        0.0006070139934308827
      ],
      "type": "VEC3"
    },
    {
      "bufferView": 2,
      "byteOffset": 326028,
      "componentType": 5126,
      "count": 5605,
      "max": [
        1.0,
        1.0,
        1.0
      ],
      "min": [
        -1.0,
        -1.0,
        -1.0
      ],
      "type": "VEC3"
    },
    {
      "bufferView": 3,
      "byteOffset": 172512,
      "componentType": 5126,
      "count": 5605,
      "max": [
        1.0,
        1.0,
        0.9999805688858032,
        1.0
      ],
      "min": [
        -1.0,
        -1.0,
        -0.9999826550483704,
        1.0
      ],
      "type": "VEC4"
    },
    {
      "bufferView": 1,
      "byteOffset": 86256,
      "componentType": 5126,
      "count": 5605,
      "max": [
        0.981410026550293,
        0.9975590109825134
      ],
      "min": [
        0.002440999960526824,
        0.002440999960526824
      ],
      "type": "VEC2"
    },
    {
      "bufferView": 0,
      "byteOffset": 220416,
      "componentType": 5125,
      "count": 29976,
      "type": "SCALAR"
    }
  ],
  "asset": {
    "extras": {
      "author": "TheArtGun (https://sketchfab.com/theartgun)",
      "license": "CC-BY-4.0 (http://creativecommons.org/licenses/by/4.0/)",
      "source": "https://sketchfab.com/3d-models/gd52-mod1-a2-saigebaker-05270793c636474883a3d8ceaedb3cf3",
      "title": "GD52_MOD1_A2_SaigeBaker"
    },
    "generator": "Sketchfab-12.66.0",
    "version": "2.0"
  },
  "bufferViews": [
    {
      "buffer": 0,
      "byteLength": 340320,
      "name": "floatBufferViews",
      "target": 34963
    },
    {
      "buffer": 0,
      "byteLength": 131096,
      "byteOffset": 340320,
      "byteStride": 8,
      "name": "floatBufferViews",
      "target": 34962
    },
    {
      "buffer": 0,
      "byteLength": 393288,
      "byteOffset": 471416,
      "byteStride": 12,
      "name": "floatBufferViews",
      "target": 34962
    },
    {
      "buffer": 0,
      "byteLength": 262192,
      "byteOffset": 864704,
      "byteStride": 16,
      "name": "floatBufferViews",
      "target": 34962
    }
  ],
  "buffers": [
    {
      "byteLength": 1126896,
      "uri": "scene.bin"
    }
  ],
  "images": [
    {
      "uri": "textures/Ass2_None_baseColor.png"
    },
    {
      "uri": "textures/Ass2_None_metallicRoughness.png"
    },
    {
      "uri": "textures/Ass2_None_emissive.png"
    },
    {
      "uri": "textures/Ass2_None_normal.png"
    },
    {
      "uri": "textures/Ass3_None_baseColor.png"
    },
    {
      "uri": "textures/Ass3_None_metallicRoughness.png"
    },
    {
      "uri": "textures/Ass3_None_emissive.png"
    },
    {
      "uri": "textures/Ass3_None_normal.png"
    }
  ],
  "materials": [
    {
      "doubleSided": true,
      "emissiveFactor": [
        1.0,
        1.0,
        1.0
      ],
      "emissiveTexture": {
        "index": 2
      },
      "name": "Ass2_None",
      "normalTexture": {
        "index": 3
      },
      "pbrMetallicRoughness": {
        "baseColorTexture": {
          "index": 0
        },
        "metallicRoughnessTexture": {
          "index": 1
        }
      }
    },
    {
      "doubleSided": true,
      "emissiveFactor": [
        1.0,
        1.0,
        1.0
      ],
      "emissiveTexture": {
        "index": 6
      },
      "name": "Ass3_None",
      "normalTexture": {
        "index": 7
      },
      "pbrMetallicRoughness": {
        "baseColorTexture": {
          "index": 4
        },
        "metallicRoughnessTexture": {
          "index": 5
        }
      }
    }
  ],
  "meshes": [
    {
      "name": "Object_0",
      "primitives": [
        {
          "attributes": {
            "NORMAL": 1,
            "POSITION": 0,
            "TANGENT": 2,
            "TEXCOORD_0": 3
          },
          "indices": 4,
          "material": 0,
          "mode": 4
        }
      ]
    },
    {
      "name": "Object_1",
      "primitives": [
        {
          "attributes": {
            "NORMAL": 6,
            "POSITION": 5,
            "TANGENT": 7,
            "TEXCOORD_0": 8
          },
          "indices": 9,
          "material": 1,
          "mode": 4
        }
      ]
    }
  ],
  "nodes": [
    {
      "children": [
        1
      ],
      "matrix": [
        1.0,
        0.0,
        0.0,
        0.0,
        0.0,
        2.220446049250313e-16,
        -1.0,
        0.0,
        0.0,
        1.0,
        2.220446049250313e-16,
        0.0,
        0.0,
        0.0,
        0.0,
        1.0
      ],
      "name": "Sketchfab_model"
    },
    {
      "children": [
        2,
        3
      ],
      "name": "Assignemtn2.obj.cleaner.materialmerger.gles"
    },
    {
      "mesh": 0,
      "name": "Object_2"
    },
    {
      "mesh": 1,
      "name": "Object_3"
    }
  ],
  "samplers": [
    {
      "magFilter": 9729,
      "minFilter": 9987,
      "wrapS": 10497,
      "wrapT": 10497
    }
  ],
  "scene": 0,
  "scenes": [
    {
      "name": "Sketchfab_Scene",
      "nodes": [
        0
      ]
    }
  ],
  "textures": [
    {
      "sampler": 0,
      "source": 0
    },
    {
      "sampler": 0,
      "source": 1
    },
    {
      "sampler": 0,
      "source": 2
    },
    {
      "sampler": 0,
      "source": 3
    },
    {
      "sampler": 0,
      "source": 4
    },
    {
      "sampler": 0,
      "source": 5
    },
    {
      "sampler": 0,
      "source": 6
    },
    {
      "sampler": 0,
      "source": 7
    }
  ]
}
