{
  "accessors": [
    {
      "bufferView": 2,
      "componentType": 5126,
      "count": 184,
      "max": [
        1.008131980895996,
        1.8867210149765015,
        0.5669090151786804
      ],
      "min": [
        -0.9918680191040039,
        -1.0,
        -1.4330919981002808
      ],
      "type": "VEC3"
    },
    {
      "bufferView": 2,
      "byteOffset": 2208,
      "componentType": 5126,
      "count": 184,
      "max": [
        0.9927324652671814,
        0.9993677735328674,
        0.999401330947876
      ],
      "min": [
        -0.9907063841819763,
        -0.9993990063667297,
        -0.9992802143096924
      ],
      "type": "VEC3"
    },
    {
      "bufferView": 3,
      "componentType": 5126,
      "count": 184,
      "max": [
        0.9999963641166687,
        0.8837929368019104,
        0.9887019395828247,
        1.0
      ],
      "min": [
        -0.9986899495124817,
        -0.9747036099433899,
        -0.999876856803894,
        1.0
      ],
      "type": "VEC4"
    },
    {
      "bufferView": 1,
      "componentType": 5126,
      "count": 184,
      "max": [
        0.8708009719848633,
        1.0
      ],
      "min": [
        0.0,
        0.0
      ],
      "type": "VEC2"
    },
    {
      "bufferView": 0,
      "componentType": 5125,
      "count": 708,
      "type": "SCALAR"
    },
    {
      "bufferView": 2,
      "byteOffset": 4416,
      "componentType": 5126,
      "count": 50,
      "max": [
        0.6952769756317139,
        1.8910579681396484,
        0.4858660101890564
      ],
      "min": [
        -0.786873996257782,
        -0.3233279883861542,
        -1.2376949787139893
      ],
      "type": "VEC3"
    },
    {
      "bufferView": 2,
      "byteOffset": 5016,
      "componentType": 5126,
      "count": 50,
      "max": [
        1.0,
        1.0,
        1.0
      ],
      "min": [
        -1.0,
        -1.0,
        -0.9975675940513611
      ],
      "type": "VEC3"
    },
    {
      "bufferView": 3,
      "byteOffset": 2944,
      "componentType": 5126,
      "count": 50,
      "max": [
        0.5509011149406433,
        0.9999829530715942,
        0.16450947523117065,
        1.0
      ],
      "min": [
        -0.7727274894714355,
        -0.9999167919158936,
        -0.9778811931610107,
        -1.0
      ],
      "type": "VEC4"
    },
    {
      "bufferView": 1,
      "byteOffset": 1472,
      "componentType": 5126,
      "count": 50,
      "max": [
        0.8410919904708862,
        0.9705389738082886
      ],
      "min": [
        0.08601400256156921,
        0.011288000270724297
      ],
      "type": "VEC2"
    },
    {
      "bufferView": 0,
      "byteOffset": 2832,
      "componentType": 5125,
      "count": 282,
      "type": "SCALAR"
    },
    {
      "bufferView": 2,
      "byteOffset": 5616,
      "componentType": 5126,
      "count": 497,
      "max": [
        0.910207986831665,
        2.2536630630493164,
        -0.28796499967575073
      ],
      "min": [
        -0.6554629802703857,
        -0.6691719889640808,
        -0.9529500007629395
      ],
      "type": "VEC3"
    },
    {
      "bufferView": 2,
      "byteOffset": 11580,
      "componentType": 5126,
      "count": 497,
      "max": [
        0.9988522529602051,
        0.9941791296005249,
        0.9990668892860413
      ],
      "min": [
        -0.9999428987503052,
        -0.9893995523452759,
        -0.9998786449432373
      ],
      "type": "VEC3"
    },
    {
      "bufferView": 3,
      "byteOffset": 3744,
      "componentType": 5126,
      "count": 497,
      "max": [
        0.9947676658630371,
        0.9985933899879456,
        0.9999603033065796,
        1.0
      ],
      "min": [
        -0.9997704029083252,
        -0.5988038778305054,
        -0.993890643119812,
        -1.0
      ],
      "type": "VEC4"
    },
    {
      "bufferView": 1,
      "byteOffset": 1872,
      "componentType": 5126,
      "count": 497,
      "max": [
        0.9813010096549988,
        0.9830009937286377
      ],
      "min": [
        0.024574000388383865,
        0.01991499960422516
      ],
      "type": "VEC2"
    },
    {
      "bufferView": 0,
      "byteOffset": 3960,
      "componentType": 5125,
      "count": 1719,
      "type": "SCALAR"
    },
    {
      "bufferView": 2,
      "byteOffset": 17544,
      "componentType": 5126,
      "count": 374,
      "max": [
        0.6423439979553223,
        1.969007968902588,
        0.1623860001564026
      ],
      "min": [
        -0.6423439979553223,
        1.3882009983062744,
        -0.6697189807891846
      ],
      "type": "VEC3"
    },
    {
      "bufferView": 2,
      "byteOffset": 22032,
      "componentType": 5126,
      "count": 374,
      "max": [
        0.9999561309814453,
        0.9631718993186951,
        0.9894731044769287
      ],
      "min": [
        -0.9999561309814453,
        -0.920183539390564,
        -0.9955846667289734
      ],
      "type": "VEC3"
    },
    {
      "bufferView": 3,
      "byteOffset": 11696,
      "componentType": 5126,
      "count": 374,
      "max": [
        0.9993087649345398,
        0.9832217693328857,
        0.8090558648109436,
        1.0
      ],
      "min": [
        -0.9993087649345398,
        -0.9905025959014893,
        -0.9989134073257446,
        -1.0
      ],
      "type": "VEC4"
    },
    {
      "bufferView": 1,
      "byteOffset": 5848,
      "componentType": 5126,
      "count": 374,
      "max": [
        0.9972749948501587,
        1.0
      ],
      "min": [
        0.0,
        0.0
      ],
      "type": "VEC2"
    },
    {
      "bufferView": 0,
      "byteOffset": 10836,
      "componentType": 5125,
      "count": 1497,
      "type": "SCALAR"
    }
  ],
  "asset": {
    "extras": {
      "author": "Asylum Nox (https://sketchfab.com/peter.pottiez)",
      "license": "CC-BY-4.0 (http://creativecommons.org/licenses/by/4.0/)",
      "source": "https://sketchfab.com/3d-models/wizard-book-stand-18d694bb036648bfb8b878e5164a5100",
      "title": "Wizard Book Stand"
    },
    "generator": "Sketchfab-14.15.0",
    "version": "2.0"
  },
  "bufferViews": [
    {
      "buffer": 0,
      "byteLength": 16824,
      "name": "floatBufferViews",
      "target": 34963
    },
    {
      "buffer": 0,
      "byteLength": 8840,
      "byteOffset": 16824,
      "byteStride": 8,
      "name": "floatBufferViews",
      "target": 34962
    },
    {
      "buffer": 0,
      "byteLength": 26520,
      "byteOffset": 25664,
      "byteStride": 12,
      "name": "floatBufferViews",
      "target": 34962
    },
    {
      "buffer": 0,
      "byteLength": 17680,
      "byteOffset": 52184,
      "byteStride": 16,
      "name": "floatBufferViews",
      "target": 34962
    }
  ],
  "buffers": [
    {
      "byteLength": 69864,
      "uri": "scene.bin"
    }
  ],
  "images": [
    {
      "uri": "textures/Material.00_Material.001_gen_ligh_baseColor.jpeg"
    },
    {
      "uri": "textures/Material.00_Material.001_gen_ligh_metallicRoughness.png"
    },
    {
      "uri": "textures/Material.00_Material.001_gen_ligh_normal.png"
    },
    {
      "uri": "textures/Material.002_material_flaskthing.d_baseColor.jpeg"
    },
    {
      "uri": "textures/Material.002_material_flaskthing.d_metallicRoughness.png"
    },
    {
      "uri": "textures/Material.002_material_flaskthing.d_normal.png"
    },
    {
      "uri": "textures/Material.001_model001_material002_baseColor.jpeg"
    },
    {
      "uri": "textures/Material.001_model001_material002_metallicRoughness.png"
    },
    {
      "uri": "textures/Material.001_model001_material002_normal.png"
    },
    {
      "uri": "textures/Material_lootchest_ezmo_stuff_baseColor.jpeg"
    },
    {
      "uri": "textures/Material_lootchest_ezmo_stuff_metallicRoughness.png"
    },
    {
      "uri": "textures/Material_lootchest_ezmo_stuff_normal.png"
    }
  ],
  "materials": [
    {
      "doubleSided": true,
      "name": "Material.00_Material.001_gen_ligh",
      "normalTexture": {
        "index": 2
      },
      "pbrMetallicRoughness": {
        "baseColorTexture": {
          "index": 0
        },
        "metallicRoughnessTexture": {
          "index": 1
        }
      }
    },
    {
      "name": "Material.002_material_flaskthing.d",
      "normalTexture": {
        "index": 5
      },
      "pbrMetallicRoughness": {
        "baseColorTexture": {
          "index": 3
        },
        "metallicRoughnessTexture": {
          "index": 4
        }
      }
    },
    {
      "doubleSided": true,
      "name": "Material.001_model001_material002",
      "normalTexture": {
        "index": 8
      },
      "pbrMetallicRoughness": {
        "baseColorTexture": {
          "index": 6
        },
        "metallicRoughnessTexture": {
          "index": 7
        }
      }
    },
    {
      "doubleSided": true,
      "name": "Material_lootchest_ezmo_stuff",
      "normalTexture": {
        "index": 11
      },
      "pbrMetallicRoughness": {
        "baseColorTexture": {
          "index": 9
        },
        "metallicRoughnessTexture": {
          "index": 10
        }
      }
    }
  ],
  "meshes": [
    {
      "name": "defaultMaterial",
      "primitives": [
        {
          "attributes": {
            "NORMAL": 1,
            "POSITION": 0,
            "TANGENT": 2,
            "TEXCOORD_0": 3
          },
          "indices": 4,
          "material": 0,
          "mode": 4
        }
      ]
    },
    {
      "name": "defaultMaterial",
      "primitives": [
        {
          "attributes": {
            "NORMAL": 6,
            "POSITION": 5,
            "TANGENT": 7,
            "TEXCOORD_0": 8
          },
          "indices": 9,
          "material": 1,
          "mode": 4
        }
      ]
    },
    {
      "name": "defaultMaterial",
      "primitives": [
        {
          "attributes": {
            "NORMAL": 11,
            "POSITION": 10,
            "TANGENT": 12,
            "TEXCOORD_0": 13
          },
          "indices": 14,
          "material": 2,
          "mode": 4
        }
      ]
    },
    {
      "name": "defaultMaterial",
      "primitives": [
        {
          "attributes": {
            "NORMAL": 16,
            "POSITION": 15,
            "TANGENT": 17,
            "TEXCOORD_0": 18
          },
          "indices": 19,
          "material": 3,
          "mode": 4
        }
      ]
    }
  ],
  "nodes": [
    {
      "children": [
        1
      ],
      "matrix": [
        0.4466322064399719,
        0.0,
        0.0,
        0.0,
        0.0,
        9.917227182575859e-17,
        -0.4466322064399719,
        0.0,
        0.0,
        0.4466322064399719,
        9.917227182575859e-17,
        0.0,
        0.0,
        0.0,
        0.0,
        1.0
      ],
      "name": "Sketchfab_model"
    },
    {
      "children": [
        2
      ],
      "matrix": [
        1.0,
        0.0,
        0.0,
        0.0,
        0.0,
        -4.371139006309477e-08,
        0.999999999999999,
        0.0,
        0.0,
        -0.999999999999999,
        -4.371139006309477e-08,
        0.0,
        0.0,
        0.0,
        0.0,
        1.0
      ],
      "name": "Collada visual scene group"
    },
    {
      "children": [
        3,
        4,
        5,
        6
      ],
      "name": "defaultobject"
    },
    {
      "mesh": 0,
      "name": "defaultMaterial"
    },
    {
      "mesh": 1,
      "name": "defaultMaterial"
    },
    {
      "mesh": 2,
      "name": "defaultMaterial"
    },
    {
      "mesh": 3,
      "name": "defaultMaterial"
    }
  ],
  "samplers": [
    {
      "magFilter": 9729,
      "minFilter": 9987,
      "wrapS": 10497,
      "wrapT": 10497
    }
  ],
  "scene": 0,
  "scenes": [
    {
      "name": "Sketchfab_Scene",
      "nodes": [
        0
      ]
    }
  ],
  "textures": [
    {
      "sampler": 0,
      "source": 0
    },
    {
      "sampler": 0,
      "source": 1
    },
    {
      "sampler": 0,
      "source": 2
    },
    {
      "sampler": 0,
      "source": 3
    },
    {
      "sampler": 0,
      "source": 4
    },
    {
      "sampler": 0,
      "source": 5
    },
    {
      "sampler": 0,
      "source": 6
    },
    {
      "sampler": 0,
      "source": 7
    },
    {
      "sampler": 0,
      "source": 8
    },
    {
      "sampler": 0,
      "source": 9
    },
    {
      "sampler": 0,
      "source": 10
    },
    {
      "sampler": 0,
      "source": 11
    }
  ]
}
