{
  "accessors": [
    {
      "bufferView": 2,
      "componentType": 5126,
      "count": 56523,
      "max": [
        0.1941898912191391,
        0.15371762216091156,
        0.1809668391942978
      ],
      "min": [
        -0.20102211833000183,
        -0.15427829325199127,
        -0.18196605145931244
      ],
      "type": "VEC3"
    },
    {
      "bufferView": 2,
      "byteOffset": 678276,
      "componentType": 5126,
      "count": 56523,
      "max": [
        0.9999940991401672,
        0.9999547004699707,
        0.9999581575393677
      ],
      "min": [
        -0.9999943971633911,
        -0.9999752640724182,
        -0.9988592267036438
      ],
      "type": "VEC3"
    },
    {
      "bufferView": 1,
      "componentType": 5126,
      "count": 56523,
      "max": [
        0.9990910291671753,
        0.9991397261619568
      ],
      "min": [
        0.00013702384603675455,
        0.00013702384603675455
      ],
      "type": "VEC2"
    },
    {
      "bufferView": 0,
      "componentType": 5125,
      "count": 297252,
      "type": "SCALAR"
    }
  ],
  "asset": {
    "extras": {
      "author": "OpenScan (https://sketchfab.com/openscan)",
      "license": "CC-BY-4.0 (http://creativecommons.org/licenses/by/4.0/)",
      "source": "https://sketchfab.com/3d-models/stone-age-spinning-wheel-whorl-cc66f928ccad49e2a5412e85ae8114fc",
      "title": "Stone age spinning wheel whorl"
    },
    "generator": "Sketchfab-12.68.0",
    "version": "2.0"
  },
  "bufferViews": [
    {
      "buffer": 0,
      "byteLength": 1189008,
      "name": "floatBufferViews",
      "target": 34963
    },
    {
      "buffer": 0,
      "byteLength": 452184,
      "byteOffset": 1189008,
      "byteStride": 8,
      "name": "floatBufferViews",
      "target": 34962
    },
    {
      "buffer": 0,
      "byteLength": 1356552,
      "byteOffset": 1641192,
      "byteStride": 12,
      "name": "floatBufferViews",
      "target": 34962
    }
  ],
  "buffers": [
    {
      "byteLength": 2997744,
      "uri": "scene.bin"
    }
  ],
  "extensionsRequired": [
    "KHR_materials_pbrSpecularGlossiness"
  ],
  "extensionsUsed": [
    "KHR_materials_pbrSpecularGlossiness"
  ],
  "images": [
    {
      "uri": "textures/texture_0_diffuse.png"
    }
  ],
  "materials": [
    {
      "doubleSided": true,
      "extensions": {
        "KHR_materials_pbrSpecularGlossiness": {
          "diffuseFactor": [
            1.0,
            1.0,
            1.0,
            1.0
          ],
          "diffuseTexture": {
            "index": 0
          },
          "glossinessFactor": 1.0,
          "specularFactor": [
            0.0,
            0.0,
            0.0
          ]
        }
      },
      "name": "texture_0"
    }
  ],
  "meshes": [
    {
      "name": "Object_0",
      "primitives": [
        {
          "attributes": {
            "NORMAL": 1,
            "POSITION": 0,
            "TEXCOORD_0": 2
          },
          "indices": 3,
          "material": 0,
          "mode": 4
        }
      ]
    }
  ],
  "nodes": [
    {
      "children": [
        1
      ],
      "matrix": [
        -0.9422239661216736,
        -0.18114098906517034,
        0.28178352117538447,
        0.0,
        -0.038672398775815964,
        0.8943817019462584,
        0.44562971591949485,
        0.0,
        -0.3327438533306122,
        0.40898576378822343,
        -0.8497130274772643,
        0.0,
        -0.006810924969613552,
        -0.000663275830447674,
        0.0009431569487787782,
        1.0
      ],
      "name": "Sketchfab_model"
    },
    {
      "children": [
        2
      ],
      "name": "2022-03-13_13.17.33-schleifstein1X.obj.cleaner.materialmerger.gles"
    },
    {
      "mesh": 0,
      "name": "Object_2"
    }
  ],
  "samplers": [
    {
      "magFilter": 9729,
      "minFilter": 9987,
      "wrapS": 10497,
      "wrapT": 10497
    }
  ],
  "scene": 0,
  "scenes": [
    {
      "name": "Sketchfab_Scene",
      "nodes": [
        0
      ]
    }
  ],
  "textures": [
    {
      "sampler": 0,
      "source": 0
    }
  ]
}
